<svg width="32" height="32" viewBox="0 0 32 32" fill="none" xmlns="http://www.w3.org/2000/svg">
<rect width="32" height="32" rx="16" fill="white"/>
<path d="M23.5428 22.9666C15.0359 27.0152 9.75643 23.6278 6.37687 21.5704C6.16775 21.4408 5.81231 21.6008 6.1207 21.955C7.2466 23.3202 10.9364 26.6106 15.7527 26.6106C20.5723 26.6106 23.4395 23.9809 23.7982 23.5221C24.1544 23.0672 23.9028 22.8163 23.5427 22.9666H23.5428ZM25.9319 21.6472C25.7035 21.3497 24.5428 21.2942 23.8124 21.384C23.0808 21.4711 21.9827 21.9182 22.0782 22.1867C22.1272 22.2872 22.2272 22.2421 22.7297 22.1969C23.2337 22.1467 24.6454 21.9685 24.9396 22.353C25.2351 22.7402 24.4893 24.5848 24.3531 24.8823C24.2215 25.1797 24.4034 25.2565 24.6506 25.0583C24.8944 24.8603 25.3358 24.3474 25.632 23.6215C25.9261 22.8917 26.1055 21.8737 25.9319 21.6472H25.9319Z" fill="#FF9900"/>
<path fill-rule="evenodd" clip-rule="evenodd" d="M17.8229 14.7055C17.8229 15.7678 17.8497 16.6537 17.3128 17.5971C16.8794 18.3641 16.1929 18.8358 15.4259 18.8358C14.3789 18.8358 13.7692 18.0381 13.7692 16.8608C13.7692 14.5367 15.8516 14.1149 17.8229 14.1149V14.7055ZM20.5725 21.3516C20.3923 21.5126 20.1315 21.5242 19.9283 21.4168C19.0232 20.6652 18.8621 20.3162 18.3636 19.599C16.8679 21.1254 15.8094 21.5817 13.8689 21.5817C11.5756 21.5817 9.78845 20.1665 9.78845 17.3325C9.78845 15.1197 10.9889 13.6125 12.6953 12.8763C14.1757 12.2242 16.2428 12.1092 17.8229 11.929V11.5761C17.8229 10.928 17.8726 10.161 17.493 9.60113C17.1593 9.09873 16.5227 8.89163 15.9628 8.89163C14.9235 8.89163 13.9955 9.42467 13.7692 10.5291C13.7231 10.7746 13.5429 11.0163 13.2975 11.0277L10.6513 10.744C10.4289 10.6941 10.1835 10.5139 10.2449 10.1725C10.8546 6.96649 13.75 6 16.3424 6C17.6693 6 19.4027 6.35285 20.4497 7.35766C21.7767 8.59633 21.6501 10.2492 21.6501 12.0478V16.297C21.6501 17.5741 22.1793 18.134 22.6778 18.8243C22.8542 19.0698 22.8926 19.3651 22.6702 19.5491C22.1141 20.0131 21.1246 20.8761 20.5801 21.3593L20.5724 21.3516" fill="black"/>
<path d="M23.5428 22.9666C15.0359 27.0152 9.75643 23.6278 6.37687 21.5704C6.16775 21.4408 5.81231 21.6008 6.1207 21.955C7.2466 23.3202 10.9364 26.6106 15.7527 26.6106C20.5723 26.6106 23.4395 23.9809 23.7982 23.5221C24.1544 23.0672 23.9028 22.8163 23.5427 22.9666H23.5428ZM25.9319 21.6472C25.7035 21.3497 24.5428 21.2942 23.8124 21.384C23.0808 21.4711 21.9827 21.9182 22.0782 22.1867C22.1272 22.2872 22.2272 22.2421 22.7297 22.1969C23.2337 22.1467 24.6454 21.9685 24.9396 22.353C25.2351 22.7402 24.4893 24.5848 24.3531 24.8823C24.2215 25.1797 24.4034 25.2565 24.6506 25.0583C24.8944 24.8603 25.3358 24.3474 25.632 23.6215C25.9261 22.8917 26.1055 21.8737 25.9319 21.6472H25.9319Z" fill="#FF9900"/>
<path fill-rule="evenodd" clip-rule="evenodd" d="M17.8229 14.7055C17.8229 15.7678 17.8497 16.6537 17.3128 17.5971C16.8794 18.3641 16.1929 18.8358 15.4259 18.8358C14.3789 18.8358 13.7692 18.0381 13.7692 16.8608C13.7692 14.5367 15.8516 14.1149 17.8229 14.1149V14.7055ZM20.5725 21.3516C20.3923 21.5126 20.1315 21.5242 19.9283 21.4168C19.0232 20.6652 18.8621 20.3162 18.3636 19.599C16.8679 21.1254 15.8094 21.5817 13.8689 21.5817C11.5756 21.5817 9.78845 20.1665 9.78845 17.3325C9.78845 15.1197 10.9889 13.6125 12.6953 12.8763C14.1757 12.2242 16.2428 12.1092 17.8229 11.929V11.5761C17.8229 10.928 17.8726 10.161 17.493 9.60113C17.1593 9.09873 16.5227 8.89163 15.9628 8.89163C14.9235 8.89163 13.9955 9.42467 13.7692 10.5291C13.7231 10.7746 13.5429 11.0163 13.2975 11.0277L10.6513 10.744C10.4289 10.6941 10.1835 10.5139 10.2449 10.1725C10.8546 6.96649 13.75 6 16.3424 6C17.6693 6 19.4027 6.35285 20.4497 7.35766C21.7767 8.59633 21.6501 10.2492 21.6501 12.0478V16.297C21.6501 17.5741 22.1793 18.134 22.6778 18.8243C22.8542 19.0698 22.8926 19.3651 22.6702 19.5491C22.1141 20.0131 21.1246 20.8761 20.5801 21.3593L20.5724 21.3516" fill="black"/>
</svg>
