<svg width="603" height="241" viewBox="0 0 603 241" fill="none" xmlns="http://www.w3.org/2000/svg">
<g clip-path="url(#clip0_1_11)">
<path d="M374.006 201.184C339.007 226.981 288.277 240.745 244.6 240.745C183.358 240.745 128.224 218.094 86.5125 180.42C83.2354 177.458 86.1717 173.42 90.1042 175.727C135.119 201.918 190.777 217.674 248.27 217.674C287.045 217.674 329.7 209.652 368.92 193.004C374.845 190.488 379.8 196.884 374.006 201.184Z" fill="#FF9900"/>
<path d="M388.557 184.536C384.1 178.821 358.984 181.836 347.711 183.173C344.277 183.593 343.752 180.604 346.846 178.454C366.849 164.376 399.673 168.439 403.5 173.158C407.328 177.903 402.504 210.806 383.707 226.509C380.823 228.921 378.07 227.637 379.355 224.438C383.576 213.899 393.04 190.278 388.557 184.536Z" fill="#FF9900"/>
<path d="M348.497 79.066V65.3808C348.497 63.3097 350.07 61.9202 351.958 61.9202H413.227C415.193 61.9202 416.766 63.3359 416.766 65.3808V77.0997C416.74 79.066 415.088 81.6352 412.152 85.6988L380.403 131.028C392.201 130.739 404.654 132.496 415.35 138.526C417.762 139.889 418.418 141.882 418.601 143.848V158.451C418.601 160.443 416.399 162.776 414.092 161.57C395.242 151.687 370.205 150.612 349.363 161.675C347.239 162.829 345.011 160.522 345.011 158.529V144.661C345.011 142.432 345.037 138.631 347.265 135.249L384.047 82.5004H352.037C350.07 82.5004 348.497 81.1109 348.497 79.066Z" fill="#221F1F"/>
<path d="M124.999 164.454H106.359C104.576 164.323 103.16 162.986 103.029 161.282V65.6168C103.029 63.7029 104.628 62.1823 106.621 62.1823H124.003C125.812 62.2609 127.253 63.6505 127.385 65.3808V77.8862H127.725C132.261 65.8003 140.781 60.1636 152.264 60.1636C163.931 60.1636 171.219 65.8003 176.462 77.8862C180.972 65.8003 191.223 60.1636 202.207 60.1636C210.02 60.1636 218.567 63.3883 223.784 70.6242C229.683 78.6727 228.477 90.3654 228.477 100.616L228.451 160.994C228.451 162.907 226.851 164.454 224.859 164.454H206.245C204.383 164.323 202.889 162.829 202.889 160.994V110.29C202.889 106.253 203.256 96.1856 202.365 92.3579C200.975 85.9348 196.807 84.1258 191.406 84.1258C186.897 84.1258 182.178 87.1408 180.264 91.9647C178.35 96.7886 178.534 104.863 178.534 110.29V160.994C178.534 162.907 176.934 164.454 174.942 164.454H156.328C154.44 164.323 152.972 162.829 152.972 160.994L152.946 110.29C152.946 99.62 154.702 83.9161 141.463 83.9161C128.066 83.9161 128.591 99.2267 128.591 110.29V160.994C128.591 162.907 126.991 164.454 124.999 164.454Z" fill="#221F1F"/>
<path d="M469.514 60.1636C497.173 60.1636 512.143 83.9161 512.143 114.118C512.143 143.297 495.6 166.447 469.514 166.447C442.354 166.447 427.567 142.694 427.567 113.095C427.567 83.3131 442.537 60.1636 469.514 60.1636ZM469.672 79.6952C455.934 79.6952 455.069 98.414 455.069 110.081C455.069 121.773 454.885 146.732 469.514 146.732C483.96 146.732 484.642 126.597 484.642 114.328C484.642 106.253 484.301 96.6051 481.863 88.9497C479.765 82.2907 475.597 79.6952 469.672 79.6952Z" fill="#221F1F"/>
<path d="M548.008 164.454H529.446C527.585 164.323 526.09 162.829 526.09 160.994L526.064 65.3021C526.221 63.5456 527.768 62.1823 529.656 62.1823H546.933C548.558 62.2609 549.895 63.3621 550.262 64.8565V79.4854H550.603C555.82 66.4032 563.135 60.1636 576.007 60.1636C584.37 60.1636 592.524 63.1786 597.767 71.4369C602.644 79.0922 602.644 91.9647 602.644 101.219V161.439C602.434 163.117 600.887 164.454 599.052 164.454H580.359C578.655 164.323 577.239 163.065 577.056 161.439V109.478C577.056 99.017 578.262 83.7064 565.389 83.7064C560.854 83.7064 556.685 86.7475 554.614 91.3617C551.993 97.208 551.652 103.028 551.652 109.478V160.994C551.626 162.907 550 164.454 548.008 164.454Z" fill="#221F1F"/>
<path d="M299.655 118.758V114.721C286.18 114.721 271.944 117.605 271.944 133.492C271.944 141.541 276.113 146.994 283.27 146.994C288.513 146.994 293.206 143.769 296.169 138.526C299.839 132.076 299.655 126.02 299.655 118.758ZM318.453 164.192C317.221 165.293 315.438 165.372 314.048 164.638C307.861 159.499 306.76 157.114 303.352 152.211C293.127 162.645 285.892 165.765 272.626 165.765C256.948 165.765 244.731 156.091 244.731 136.717C244.731 121.59 252.937 111.287 264.604 106.253C274.723 101.796 288.854 101.01 299.655 99.7773V97.3654C299.655 92.9347 299.996 87.6913 297.401 83.8637C295.12 80.4293 290.768 79.0136 286.94 79.0136C279.836 79.0136 273.491 82.6577 271.944 90.2082C271.63 91.886 270.397 93.5377 268.72 93.6164L250.63 91.6763C249.109 91.3355 247.431 90.1033 247.851 87.77C252.019 65.8527 271.813 59.2461 289.536 59.2461C298.607 59.2461 310.457 61.658 317.614 68.5268C326.685 76.9949 325.82 88.2943 325.82 100.59V129.638C325.82 138.369 329.438 142.196 332.846 146.915C334.052 148.593 334.314 150.612 332.794 151.87C328.992 155.042 322.228 160.941 318.505 164.245L318.453 164.192Z" fill="#221F1F"/>
<path d="M55.2883 118.758V114.721C41.8128 114.721 27.5771 117.605 27.5771 133.492C27.5771 141.541 31.7455 146.994 38.9027 146.994C44.1461 146.994 48.8389 143.769 51.8014 138.526C55.4718 132.076 55.2883 126.02 55.2883 118.758ZM74.0857 164.192C72.8536 165.293 71.0708 165.372 69.6813 164.638C63.4941 159.499 62.393 157.114 58.9848 152.211C48.7603 162.645 41.5244 165.765 28.2587 165.765C12.581 165.765 0.363983 156.091 0.363983 136.717C0.363983 121.59 8.56985 111.287 20.2363 106.253C30.356 101.796 44.4869 101.01 55.2883 99.7773V97.3654C55.2883 92.9347 55.6291 87.6913 53.0336 83.8637C50.7527 80.4293 46.4008 79.0136 42.5731 79.0136C35.4683 79.0136 29.1239 82.6577 27.5771 90.2082C27.2625 91.886 26.0303 93.5377 24.3524 93.6164L6.26277 91.6763C4.74219 91.3355 3.06431 90.1033 3.48378 87.77C7.65226 65.8527 27.446 59.2461 45.1686 59.2461C54.2396 59.2461 66.0896 61.658 73.2468 68.5268C82.3178 76.9949 81.4527 88.2943 81.4527 100.59V129.638C81.4527 138.369 85.0706 142.196 88.4788 146.915C89.6848 148.593 89.9469 150.612 88.4264 151.87C84.6249 155.042 77.861 160.941 74.1382 164.245L74.0857 164.192Z" fill="#221F1F"/>
</g>
<defs>
<clipPath id="clip0_1_11">
<rect width="603" height="182" fill="white" transform="translate(0 59)"/>
</clipPath>
</defs>
</svg>
