<svg width="32" height="32" viewBox="0 0 32 32" fill="none" xmlns="http://www.w3.org/2000/svg">
<rect width="32" height="32" rx="16" fill="white"/>
<g clip-path="url(#clip0_4_58)">
<path d="M3.58783 11.0496L8.84011 7L28 8.80616L26.549 24L7.35713 22.2254L3 17.1958L3.58783 11.0496Z" fill="#010101"/>
<path fill-rule="evenodd" clip-rule="evenodd" d="M3.90317 11.2071L8.9648 7.34466L27.6497 9.11542L26.2665 23.6544L7.51776 21.8837L3.31735 17.0728L3.90317 11.2071Z" fill="#F6EB16"/>
<path fill-rule="evenodd" clip-rule="evenodd" d="M12.5485 10.5217L16.7899 10.9216L16.6681 12.1752L14.758 11.995L14.7191 12.3988L16.4615 12.5632L16.3498 13.7126L14.6173 13.5501L14.5734 14.006L16.5264 14.1902L16.4106 15.3817L12.1384 14.978L12.5485 10.5217Z" fill="#010101"/>
<path fill-rule="evenodd" clip-rule="evenodd" d="M17.4225 13.9085L16.6202 15.0766C16.6202 15.0766 17.6281 15.6113 19.0263 15.7314C20.4225 15.8536 21.4464 15.4586 21.7747 14.7988C22.104 14.1409 21.7098 13.3924 21.0632 13.1847C20.4155 12.9779 19.2928 12.7573 19.4095 12.5376C19.5263 12.319 20.2309 12.3643 20.659 12.5406C21.0871 12.7169 21.2039 12.8222 21.2039 12.8222L21.9404 11.7833C21.9404 11.7833 21.158 11.218 19.6939 11.1323C18.2289 11.0467 17.1521 11.7705 17.0773 12.4431C17.0015 13.1158 17.4395 13.5126 18.1052 13.753C18.1052 13.753 18.67 13.9322 19.0961 14.0238C19.5213 14.1164 19.7917 14.3931 19.2838 14.4916C18.7758 14.59 17.7309 14.2198 17.4225 13.9085Z" fill="#010101"/>
<path fill-rule="evenodd" clip-rule="evenodd" d="M23.2517 13.0045L22.0032 12.8873L22.143 11.4367L26.9512 11.8896L26.8114 13.3403L25.5619 13.2221L25.2706 16.2366L22.9913 16.022L23.2517 13.0045Z" fill="#010101"/>
<path fill-rule="evenodd" clip-rule="evenodd" d="M12.9028 15.6152L15.1093 15.8122L14.8747 18.3412C14.8747 18.3412 14.6572 18.9479 15.3917 19.0178C16.1272 19.0868 16.0944 18.4348 16.0944 18.4348L16.3358 15.9383L18.5513 16.147L18.2669 19.0897C18.2669 19.0897 18.0054 20.696 15.296 20.4409C12.5875 20.1857 12.6244 18.4959 12.6244 18.4959L12.9028 15.6152Z" fill="#010101"/>
<path fill-rule="evenodd" clip-rule="evenodd" d="M21.0921 16.3874L21.7248 17.6174L22.5412 16.5243L25.1129 16.7655L22.7138 19.1114L22.5281 21.0278L20.2718 20.8151L20.4534 18.9301L18.5293 16.1559L21.0921 16.3874Z" fill="#010101"/>
<path fill-rule="evenodd" clip-rule="evenodd" d="M11.4787 17.6784C11.4787 17.6784 12.4079 17.4982 12.3839 16.5616C12.36 15.6241 10.4638 15.3917 10.4638 15.3917L7.3342 15.0854L6.90706 19.5575C6.90706 19.5575 9.40496 19.8165 10.1324 19.8745C10.86 19.9317 12.3259 19.8706 12.4707 18.9458C12.6144 18.0202 11.4787 17.6784 11.4787 17.6784ZM9.34207 16.3982C9.34207 16.3982 10.3031 16.3105 10.2502 16.7556C10.1963 17.1998 9.28318 16.9989 9.28318 16.9989L9.34207 16.3982ZM9.14148 18.6789L9.19136 17.9522C9.19136 17.9522 10.3929 17.9079 10.354 18.4171C10.315 18.9262 9.14148 18.6789 9.14148 18.6789Z" fill="#010101"/>
<path d="M11.0216 12.5544C11.0216 12.5544 11.9508 12.3742 11.9268 11.4376C11.9029 10.5011 10.0067 10.2666 10.0067 10.2666L6.87609 9.9614L6.45 14.4335C6.45 14.4335 8.9479 14.6925 9.67439 14.7496C10.4019 14.8087 11.8679 14.7466 12.0127 13.8219C12.1573 12.8962 11.0216 12.5544 11.0216 12.5544ZM8.90397 11.286C8.90397 11.286 9.86603 11.1993 9.81312 11.6434C9.75928 12.0876 8.84607 11.8867 8.84607 11.8867L8.90397 11.286ZM8.70437 13.5678L8.75424 12.84C8.75424 12.84 9.95482 12.7967 9.91693 13.3058C9.87802 13.814 8.70437 13.5678 8.70437 13.5678Z" fill="#010101"/>
<path d="M5.78235 14.4708C5.73842 14.9328 5.3233 15.2706 4.85622 15.2272C4.38821 15.1829 4.04586 14.7732 4.08976 14.3114C4.13471 13.8504 4.54983 13.5127 5.0179 13.556C5.48495 13.6003 5.82724 14.01 5.78235 14.4708Z" fill="#010101"/>
<path d="M5.47191 14.4423C5.44406 14.7338 5.1816 14.9475 4.88516 14.9199C4.58974 14.8924 4.37322 14.6324 4.40113 14.3409C4.43007 14.0494 4.69259 13.8357 4.98795 13.8633C5.28333 13.8908 5.49988 14.1499 5.47191 14.4423Z" fill="white"/>
<path d="M25.1299 17.2047C25.1489 17.0067 25.3275 16.8611 25.5281 16.8798C25.7287 16.8985 25.8774 17.0757 25.8584 17.2737C25.8395 17.4716 25.6598 17.6174 25.4592 17.5987C25.2586 17.579 25.1109 17.4026 25.1299 17.2047ZM25.7685 17.2648C25.7855 17.0964 25.6738 16.9634 25.522 16.9497C25.3693 16.9349 25.2346 17.0452 25.2187 17.2126C25.2017 17.381 25.3135 17.5139 25.4651 17.5287C25.6179 17.5425 25.7525 17.4333 25.7685 17.2648ZM25.3733 17.0206L25.526 17.0353C25.6259 17.0442 25.6757 17.0836 25.6678 17.1693C25.6608 17.2392 25.6169 17.2688 25.549 17.2688L25.6428 17.4569L25.5629 17.4499L25.4742 17.2638L25.4273 17.2598L25.4102 17.4351L25.3334 17.4282L25.3733 17.0206ZM25.4333 17.2017L25.5001 17.2087C25.546 17.2127 25.5859 17.2106 25.5909 17.1555C25.5959 17.1082 25.553 17.0964 25.513 17.0925L25.4442 17.0856L25.4333 17.2017Z" fill="#010101"/>
</g>
<defs>
<clipPath id="clip0_4_58">
<rect width="25" height="17" fill="white" transform="translate(3 7)"/>
</clipPath>
</defs>
</svg>
