<svg width="32" height="32" viewBox="0 0 32 32" fill="none" xmlns="http://www.w3.org/2000/svg">
<g clip-path="url(#clip0_9_28)">
<path d="M32 16C32 7.16344 24.8366 0 16 0C7.16344 0 0 7.16344 0 16C0 24.8366 7.16344 32 16 32C24.8366 32 32 24.8366 32 16Z" fill="white"/>
<g clip-path="url(#clip1_9_28)">
<path d="M3 9.18585V15.6613H6.30278C7.60274 15.6613 8.80405 15.193 8.80405 13.8172C8.80405 12.8871 8.15136 12.4626 7.43347 12.2403C7.87086 12.0602 8.36703 11.6819 8.36703 10.8887C8.36703 9.87356 7.38582 9.18585 6.06475 9.18585H3ZM5.02333 10.694H5.7672C6.07002 10.694 6.30093 10.9375 6.30093 11.1846C6.30093 11.4142 6.06099 11.66 5.7672 11.66H5.02333V10.694ZM5.02333 13.0039H6.00524C6.34802 13.0039 6.63567 13.2712 6.63567 13.5766C6.63567 13.901 6.36664 14.1704 5.94573 14.1704H5.02333V13.0039Z" fill="#1C252C"/>
<path d="M4.63651 16.3676V22.8431H7.9393C9.23925 22.8431 10.4406 22.3747 10.4406 20.9989C10.4406 20.0689 9.78787 19.6443 9.06998 19.4221C9.50737 19.242 10.0035 18.8636 10.0035 18.0705C10.0035 17.0553 9.02233 16.3676 7.70126 16.3676H4.63651ZM6.65984 17.8758H7.40371C7.70653 17.8758 7.93744 18.1193 7.93744 18.3664C7.93744 18.596 7.6975 18.8417 7.40371 18.8417H6.65984V17.8758ZM6.65984 20.1857H7.64175C7.98453 20.1857 8.27218 20.4529 8.27218 20.7584C8.27218 21.0828 8.00315 21.3521 7.58224 21.3521H6.65984V20.1857Z" fill="#1C252C"/>
<path d="M8.96287 15.6605V9.18506H14.0509V10.7489H10.9802V11.5981H13.4737V13.0642H10.9802V14.1027H14.0509V15.6605H8.96287Z" fill="#1C252C"/>
<path d="M16.8072 15.8459C18.2394 15.8459 19.385 15.0073 19.385 13.6483C19.385 11.455 16.6055 11.7925 16.6055 11.1096C16.6055 10.8459 16.8758 10.7059 17.1529 10.7059C17.6305 10.7059 17.9756 11.0289 17.9756 11.0289L19.1714 9.86008C18.6931 9.39283 17.9377 9 16.9202 9C15.392 9 14.3922 9.93108 14.3922 11.0542C14.3922 13.2754 17.1316 12.953 17.1316 13.6499C17.1316 13.8942 16.9026 14.14 16.4874 14.14C16.0159 14.14 15.6424 13.8478 15.3517 13.5999L14.1489 14.7771C14.6333 15.2614 15.4108 15.8459 16.8072 15.8459Z" fill="#1C252C"/>
<path d="M20.9422 15.6605V10.7428H19.2759V9.18506H24.6318V10.7428H22.9655V15.6605H20.9422Z" fill="#1C252C"/>
<path d="M10.5101 16.363H12.5275V20.2422C12.5275 20.6361 12.9094 20.9991 13.3076 20.9991C13.6832 20.9991 14.0628 20.6713 14.0628 20.2215V16.363H16.0743V20.1951C16.0743 21.7157 14.8444 22.9286 13.2543 22.9286C11.655 22.9286 10.5101 21.6086 10.5101 20.1122V16.363Z" fill="#1C252C"/>
<path d="M18.5618 22.8385V20.5246L16.1907 16.363H18.2318L19.5734 18.5928L20.9197 16.363H22.9655L20.5851 20.5484V22.8385H18.5618Z" fill="#1C252C"/>
<path d="M22.9655 19.907L21.7753 21.1288V22.7782L22.9655 24H28V19.907H22.9655Z" fill="#FFED31"/>
<path d="M22.77 21.9527C22.77 22.1045 22.6501 22.2276 22.5022 22.2276C22.3543 22.2276 22.2344 22.1045 22.2344 21.9527C22.2344 21.8009 22.3543 21.6778 22.5022 21.6778C22.6501 21.6778 22.77 21.8009 22.77 21.9527Z" fill="#1C252C"/>
</g>
</g>
<defs>
<clipPath id="clip0_9_28">
<rect width="32" height="32" fill="white"/>
</clipPath>
<clipPath id="clip1_9_28">
<rect width="25" height="15" fill="white" transform="translate(3 9)"/>
</clipPath>
</defs>
</svg>
