<svg id="Group_7360" data-name="Group 7360" xmlns="http://www.w3.org/2000/svg" width="28.41" height="37.84" viewBox="0 0 28.41 37.84">
  <g id="Group_7349" data-name="Group 7349">
    <path id="Path_3378" data-name="Path 3378" d="M1080.085,427.367v-5.114h-.51v1.7h-.851v3.409h-2.042v-.852h-.85v-.853h-1.36v.853h-2.893v-3.75h.851v-2.556h.85v-3.921h-.85v-.852h-.851v-.853h-1.7v-.852h-.851v-.853h-.85v-.852h-.852v-1.7h-.85v-2.556h-.849v-2.557h-.852v-4.6h.852V398.05h.849v-2.558h.85v-.852h.852v-.853h.85v-.852h.851v-.853h.85v-.852h1.7v-.852h2.552v-.853h8.845v.853h2.552v1.7h1.7v.853h.852v.852h.85v.853h.851v.852h.85v2.558h.851v3.408h.85v5.455h-.85v1.7h-.851v2.556h-.85v.853h-.851v.852h-.85v.853h-.852v.852h-.849v.853h-1.7v2.215h.85v4.262h.851v4.6h-2.893v-.853h-1.36v.853h-.851v.852Z" transform="translate(-1064.774 -389.527)" fill="#fff"/>
    <path id="Path_3379" data-name="Path 3379" d="M1067.145,403.833v1.7h.85v2.556h.852v2.558h.85v1.7h.85v.852h.851v.853h1.7v.852h.85v.852h2.552v1.7h-.851v4.262h-.85v2.556h-.852v1.7h.852v-.852h.85v-.853h.851v-.852h.85v2.556h.851v-1.7h.85v-4.261h.852v-3.409h.85v1.7h.85v4.261h.851v3.409h.85v-1.7h.851v-.852h.85v.852h.851v1.7h.849v-2.556h-.849v-4.262h-.851v-4.261h2.552v-.852h.85v-.853h.852v-.852h.85V411.5h.85v-.852h-.85V409.8h.85v-.852h.851l.85-1.7v-4.261h-.85v-3.409h-.851v-2.557h-.85v-.852h-.85v-.853h-.852v-.852h-1.7v-.852h-.849v-.853h-1.7V391.9h-1.7v.852h-.851V391.9h-1.7v.852h-1.7V391.9h-1.7l-2.552.852v.853h-1.7v.852h-.851v.852h-.851v.853h-.85v.852h-.85v.853h.85v.852h-.85v.853h-.852v.852h.852v.853h-.852v.852h-.85v.853h.85v.852Z" transform="translate(-1065.698 -390.453)" fill="#0070c1"/>
    <rect id="Rectangle_33074" data-name="Rectangle 33074" width="0.85" height="0.852" transform="translate(6.549 2.301)"/>
    <rect id="Rectangle_33075" data-name="Rectangle 33075" width="0.85" height="0.852" transform="translate(7.4 2.301)"/>
    <rect id="Rectangle_33076" data-name="Rectangle 33076" width="0.85" height="0.852" transform="translate(8.25 1.449)"/>
    <rect id="Rectangle_33077" data-name="Rectangle 33077" width="0.85" height="0.852" transform="translate(9.102 1.449)"/>
    <rect id="Rectangle_33078" data-name="Rectangle 33078" width="0.85" height="0.852" transform="translate(9.952 1.449)"/>
    <rect id="Rectangle_33079" data-name="Rectangle 33079" width="0.85" height="0.852" transform="translate(11.653 0.596)"/>
    <rect id="Rectangle_33080" data-name="Rectangle 33080" width="0.85" height="0.852" transform="translate(10.803 0.596)"/>
    <rect id="Rectangle_33081" data-name="Rectangle 33081" width="0.85" height="0.852" transform="translate(12.504 0.596)"/>
    <rect id="Rectangle_33082" data-name="Rectangle 33082" width="1.701" height="0.852" transform="translate(12.504 1.449)"/>
    <rect id="Rectangle_33083" data-name="Rectangle 33083" width="0.85" height="0.852" transform="translate(14.205 0.596)"/>
    <rect id="Rectangle_33084" data-name="Rectangle 33084" width="0.85" height="0.852" transform="translate(15.055 0.596)"/>
    <rect id="Rectangle_33085" data-name="Rectangle 33085" width="0.85" height="0.852" transform="translate(15.905 1.449)"/>
    <rect id="Rectangle_33086" data-name="Rectangle 33086" width="0.85" height="0.852" transform="translate(16.757 0.596)"/>
    <rect id="Rectangle_33087" data-name="Rectangle 33087" width="0.85" height="0.852" transform="translate(17.607 0.596)"/>
    <rect id="Rectangle_33088" data-name="Rectangle 33088" width="0.85" height="0.852" transform="translate(18.458 1.449)"/>
    <rect id="Rectangle_33089" data-name="Rectangle 33089" width="0.85" height="0.852" transform="translate(19.308 1.449)"/>
    <rect id="Rectangle_33090" data-name="Rectangle 33090" width="0.85" height="0.852" transform="translate(20.159 1.449)"/>
    <rect id="Rectangle_33091" data-name="Rectangle 33091" width="0.85" height="0.852" transform="translate(20.159 2.301)"/>
    <rect id="Rectangle_33092" data-name="Rectangle 33092" width="0.85" height="0.852" transform="translate(21.009 3.154)"/>
    <rect id="Rectangle_33093" data-name="Rectangle 33093" width="0.85" height="0.852" transform="translate(21.86 3.154)"/>
    <rect id="Rectangle_33094" data-name="Rectangle 33094" width="0.85" height="0.852" transform="translate(22.71 4.006)"/>
    <rect id="Rectangle_33095" data-name="Rectangle 33095" width="0.85" height="0.852" transform="translate(22.71 4.857)"/>
    <rect id="Rectangle_33096" data-name="Rectangle 33096" width="0.85" height="0.852" transform="translate(23.562 4.857)"/>
    <rect id="Rectangle_33097" data-name="Rectangle 33097" width="0.85" height="0.852" transform="translate(24.412 5.71)"/>
    <rect id="Rectangle_33098" data-name="Rectangle 33098" width="0.85" height="0.852" transform="translate(24.412 6.562)"/>
    <rect id="Rectangle_33099" data-name="Rectangle 33099" width="0.85" height="0.852" transform="translate(25.263 6.562)"/>
    <rect id="Rectangle_33100" data-name="Rectangle 33100" width="0.85" height="0.852" transform="translate(25.263 7.415)"/>
    <rect id="Rectangle_33101" data-name="Rectangle 33101" width="0.85" height="0.852" transform="translate(25.263 8.267)"/>
    <rect id="Rectangle_33102" data-name="Rectangle 33102" width="0.85" height="0.852" transform="translate(26.113 9.119)"/>
    <rect id="Rectangle_33103" data-name="Rectangle 33103" width="0.85" height="0.852" transform="translate(26.113 9.971)"/>
    <rect id="Rectangle_33104" data-name="Rectangle 33104" width="0.85" height="1.705" transform="translate(26.113 10.824)"/>
    <rect id="Rectangle_33105" data-name="Rectangle 33105" width="0.85" height="0.852" transform="translate(26.963 12.529)"/>
    <rect id="Rectangle_33106" data-name="Rectangle 33106" width="0.85" height="0.852" transform="translate(26.963 13.38)"/>
    <rect id="Rectangle_33107" data-name="Rectangle 33107" width="0.85" height="0.852" transform="translate(26.113 14.233)"/>
    <rect id="Rectangle_33108" data-name="Rectangle 33108" width="0.85" height="0.852" transform="translate(26.963 15.085)"/>
    <rect id="Rectangle_33109" data-name="Rectangle 33109" width="0.85" height="0.852" transform="translate(26.963 15.937)"/>
    <rect id="Rectangle_33110" data-name="Rectangle 33110" width="0.85" height="0.852" transform="translate(26.113 16.789)"/>
    <rect id="Rectangle_33111" data-name="Rectangle 33111" width="0.85" height="0.852" transform="translate(26.113 17.641)"/>
    <rect id="Rectangle_33112" data-name="Rectangle 33112" width="0.85" height="0.852" transform="translate(25.263 18.494)"/>
    <rect id="Rectangle_33113" data-name="Rectangle 33113" width="0.85" height="0.852" transform="translate(25.263 19.346)"/>
    <rect id="Rectangle_33114" data-name="Rectangle 33114" width="0.85" height="0.852" transform="translate(24.412 19.346)"/>
    <rect id="Rectangle_33115" data-name="Rectangle 33115" width="0.85" height="0.852" transform="translate(25.263 20.199)"/>
    <rect id="Rectangle_33116" data-name="Rectangle 33116" width="0.85" height="0.852" transform="translate(24.412 21.05)"/>
    <rect id="Rectangle_33117" data-name="Rectangle 33117" width="0.85" height="0.852" transform="translate(23.562 21.05)"/>
    <rect id="Rectangle_33118" data-name="Rectangle 33118" width="0.85" height="0.852" transform="translate(23.562 21.903)"/>
    <rect id="Rectangle_33119" data-name="Rectangle 33119" width="0.85" height="0.852" transform="translate(22.71 22.755)"/>
    <rect id="Rectangle_33120" data-name="Rectangle 33120" width="0.85" height="0.852" transform="translate(21.86 22.755)"/>
    <rect id="Rectangle_33121" data-name="Rectangle 33121" height="0.852" transform="translate(21.86 23.608)"/>
    <rect id="Rectangle_33122" data-name="Rectangle 33122" width="0.85" height="0.852" transform="translate(21.86 23.608)"/>
    <rect id="Rectangle_33123" data-name="Rectangle 33123" width="0.85" height="0.852" transform="translate(21.009 24.459)"/>
    <rect id="Rectangle_33124" data-name="Rectangle 33124" width="0.85" height="0.852" transform="translate(20.159 24.459)"/>
    <rect id="Rectangle_33125" data-name="Rectangle 33125" width="0.85" height="0.852" transform="translate(19.308 24.459)"/>
    <rect id="Rectangle_33126" data-name="Rectangle 33126" width="0.85" height="0.852" transform="translate(5.699 3.154)"/>
    <rect id="Rectangle_33127" data-name="Rectangle 33127" width="0.85" height="0.852" transform="translate(5.699 4.006)"/>
    <rect id="Rectangle_33128" data-name="Rectangle 33128" width="0.85" height="0.852" transform="translate(4.848 4.006)"/>
    <rect id="Rectangle_33129" data-name="Rectangle 33129" width="0.85" height="0.852" transform="translate(3.998 4.857)"/>
    <rect id="Rectangle_33130" data-name="Rectangle 33130" width="0.85" height="0.852" transform="translate(3.148 5.71)"/>
    <rect id="Rectangle_33131" data-name="Rectangle 33131" width="0.85" height="1.705" transform="translate(2.297 6.562)"/>
    <rect id="Rectangle_33132" data-name="Rectangle 33132" width="0.85" height="0.852" transform="translate(3.998 5.71)"/>
    <rect id="Rectangle_33133" data-name="Rectangle 33133" width="0.85" height="0.852" transform="translate(3.148 7.415)"/>
    <rect id="Rectangle_33134" data-name="Rectangle 33134" width="0.85" height="0.852" transform="translate(2.297 8.267)"/>
    <rect id="Rectangle_33135" data-name="Rectangle 33135" width="0.85" height="1.705" transform="translate(1.446 9.119)"/>
    <rect id="Rectangle_33136" data-name="Rectangle 33136" width="0.85" height="0.852" transform="translate(2.297 9.971)"/>
    <rect id="Rectangle_33137" data-name="Rectangle 33137" width="0.85" height="0.852" transform="translate(1.446 10.824)"/>
    <rect id="Rectangle_33138" data-name="Rectangle 33138" width="0.85" height="1.705" transform="translate(0.595 11.676)"/>
    <rect id="Rectangle_33139" data-name="Rectangle 33139" width="0.85" height="0.852" transform="translate(1.446 12.529)"/>
    <rect id="Rectangle_33140" data-name="Rectangle 33140" width="0.85" height="1.705" transform="translate(0.595 13.38)"/>
    <rect id="Rectangle_33141" data-name="Rectangle 33141" width="0.85" height="0.852" transform="translate(1.446 15.085)"/>
    <rect id="Rectangle_33142" data-name="Rectangle 33142" width="0.85" height="0.852" transform="translate(1.446 15.937)"/>
    <rect id="Rectangle_33143" data-name="Rectangle 33143" width="0.85" height="0.852" transform="translate(1.446 16.789)"/>
    <rect id="Rectangle_33144" data-name="Rectangle 33144" width="0.85" height="0.852" transform="translate(2.297 17.641)"/>
    <rect id="Rectangle_33145" data-name="Rectangle 33145" width="0.85" height="0.852" transform="translate(2.297 18.494)"/>
    <rect id="Rectangle_33146" data-name="Rectangle 33146" width="0.85" height="0.852" transform="translate(2.297 19.346)"/>
    <rect id="Rectangle_33147" data-name="Rectangle 33147" width="0.85" height="0.852" transform="translate(3.148 20.199)"/>
    <rect id="Rectangle_33148" data-name="Rectangle 33148" width="0.85" height="0.852" transform="translate(3.148 21.05)"/>
    <rect id="Rectangle_33149" data-name="Rectangle 33149" width="0.85" height="0.852" transform="translate(3.998 21.903)"/>
    <rect id="Rectangle_33150" data-name="Rectangle 33150" width="0.85" height="0.852" transform="translate(4.848 21.903)"/>
    <rect id="Rectangle_33151" data-name="Rectangle 33151" width="0.85" height="0.852" transform="translate(4.848 22.755)"/>
    <rect id="Rectangle_33152" data-name="Rectangle 33152" width="1.701" height="0.852" transform="translate(5.699 23.608)"/>
    <rect id="Rectangle_33153" data-name="Rectangle 33153" width="0.85" height="0.852" transform="translate(7.4 24.459)"/>
    <rect id="Rectangle_33154" data-name="Rectangle 33154" width="1.701" height="0.852" transform="translate(8.25 25.312)"/>
    <rect id="Rectangle_33155" data-name="Rectangle 33155" width="0.85" height="0.852" transform="translate(9.952 21.05)"/>
    <rect id="Rectangle_33156" data-name="Rectangle 33156" width="0.85" height="5.114" transform="translate(9.952 21.903)"/>
    <rect id="Rectangle_33157" data-name="Rectangle 33157" width="0.85" height="3.409" transform="translate(9.102 27.016)"/>
    <rect id="Rectangle_33158" data-name="Rectangle 33158" width="0.85" height="2.556" transform="translate(8.25 31.278)"/>
    <rect id="Rectangle_33159" data-name="Rectangle 33159" width="0.85" height="0.852" transform="translate(9.102 30.425)"/>
    <rect id="Rectangle_33160" data-name="Rectangle 33160" width="0.85" height="1.705" transform="translate(7.4 33.834)"/>
    <rect id="Rectangle_33161" data-name="Rectangle 33161" width="0.85" height="0.852" transform="translate(7.4 35.539)"/>
    <rect id="Rectangle_33162" data-name="Rectangle 33162" width="0.85" height="0.852" transform="translate(8.25 35.539)"/>
    <rect id="Rectangle_33163" data-name="Rectangle 33163" width="0.85" height="0.852" transform="translate(9.102 34.687)"/>
    <rect id="Rectangle_33164" data-name="Rectangle 33164" width="0.85" height="0.852" transform="translate(9.952 33.834)"/>
    <rect id="Rectangle_33165" data-name="Rectangle 33165" width="0.85" height="0.852" transform="translate(10.803 32.982)"/>
    <rect id="Rectangle_33166" data-name="Rectangle 33166" width="0.85" height="0.852" transform="translate(10.803 33.834)"/>
    <rect id="Rectangle_33167" data-name="Rectangle 33167" width="0.85" height="0.852" transform="translate(10.803 34.687)"/>
    <rect id="Rectangle_33168" data-name="Rectangle 33168" width="0.85" height="0.852" transform="translate(11.653 35.539)"/>
    <rect id="Rectangle_33169" data-name="Rectangle 33169" width="0.85" height="0.852" transform="translate(12.504 36.392)"/>
    <rect id="Rectangle_33170" data-name="Rectangle 33170" width="0.85" height="0.852" transform="translate(12.504 35.539)"/>
    <rect id="Rectangle_33171" data-name="Rectangle 33171" width="0.85" height="0.852" transform="translate(12.504 34.687)"/>
    <rect id="Rectangle_33172" data-name="Rectangle 33172" width="0.85" height="0.852" transform="translate(12.504 33.834)"/>
    <rect id="Rectangle_33173" data-name="Rectangle 33173" width="0.85" height="0.852" transform="translate(13.354 32.13)"/>
    <rect id="Rectangle_33174" data-name="Rectangle 33174" width="0.85" height="0.852" transform="translate(13.354 30.425)"/>
    <rect id="Rectangle_33175" data-name="Rectangle 33175" width="0.85" height="0.852" transform="translate(13.354 32.982)"/>
    <rect id="Rectangle_33176" data-name="Rectangle 33176" width="0.85" height="0.852" transform="translate(13.354 31.278)"/>
    <rect id="Rectangle_33177" data-name="Rectangle 33177" width="0.85" height="0.852" transform="translate(13.354 29.573)"/>
    <rect id="Rectangle_33178" data-name="Rectangle 33178" width="0.85" height="2.556" transform="translate(14.205 27.016)"/>
    <rect id="Rectangle_33179" data-name="Rectangle 33179" width="0.85" height="0.852" transform="translate(14.205 26.164)"/>
    <rect id="Rectangle_33180" data-name="Rectangle 33180" width="0.85" height="3.409" transform="translate(15.055 27.869)"/>
    <rect id="Rectangle_33181" data-name="Rectangle 33181" width="0.85" height="0.852" transform="translate(15.055 31.278)"/>
    <rect id="Rectangle_33182" data-name="Rectangle 33182" width="0.85" height="2.556" transform="translate(15.905 32.13)"/>
    <rect id="Rectangle_33183" data-name="Rectangle 33183" width="0.85" height="2.556" transform="translate(15.905 34.687)"/>
    <rect id="Rectangle_33184" data-name="Rectangle 33184" width="0.85" height="0.852" transform="translate(16.757 35.539)"/>
    <rect id="Rectangle_33185" data-name="Rectangle 33185" width="0.85" height="0.852" transform="translate(17.607 34.687)"/>
    <rect id="Rectangle_33186" data-name="Rectangle 33186" width="0.85" height="0.852" transform="translate(17.607 33.834)"/>
    <rect id="Rectangle_33187" data-name="Rectangle 33187" width="0.85" height="0.852" transform="translate(18.458 32.982)"/>
    <rect id="Rectangle_33188" data-name="Rectangle 33188" width="0.85" height="0.852" transform="translate(19.308 33.834)"/>
    <rect id="Rectangle_33189" data-name="Rectangle 33189" width="0.85" height="0.852" transform="translate(19.308 34.687)"/>
    <rect id="Rectangle_33190" data-name="Rectangle 33190" width="0.85" height="0.852" transform="translate(20.159 35.539)"/>
    <rect id="Rectangle_33191" data-name="Rectangle 33191" width="0.85" height="0.852" transform="translate(21.009 35.539)"/>
    <rect id="Rectangle_33192" data-name="Rectangle 33192" width="0.85" height="1.705" transform="translate(21.009 33.834)"/>
    <rect id="Rectangle_33193" data-name="Rectangle 33193" width="0.85" height="2.556" transform="translate(20.159 30.425)"/>
    <rect id="Rectangle_33194" data-name="Rectangle 33194" width="0.85" height="0.852" transform="translate(21.009 32.982)"/>
    <rect id="Rectangle_33195" data-name="Rectangle 33195" width="0.85" height="1.705" transform="translate(20.159 28.72)"/>
    <rect id="Rectangle_33196" data-name="Rectangle 33196" width="0.85" height="2.556" transform="translate(19.308 26.164)"/>
    <rect id="Rectangle_33197" data-name="Rectangle 33197" width="0.85" height="0.852" transform="translate(19.308 25.312)"/>
    <rect id="Rectangle_33198" data-name="Rectangle 33198" width="0.85" height="0.852" transform="translate(18.458 23.608)"/>
    <rect id="Rectangle_33199" data-name="Rectangle 33199" width="0.85" height="0.852" transform="translate(18.458 22.755)"/>
    <rect id="Rectangle_33200" data-name="Rectangle 33200" width="0.85" height="0.852" transform="translate(18.458 21.903)"/>
    <rect id="Rectangle_33201" data-name="Rectangle 33201" width="0.85" height="0.852" transform="translate(17.607 21.05)"/>
    <rect id="Rectangle_33202" data-name="Rectangle 33202" width="0.85" height="0.852" transform="translate(21.009 22.755)"/>
    <rect id="Rectangle_33203" data-name="Rectangle 33203" width="0.85" height="0.852" transform="translate(20.159 21.903)"/>
    <rect id="Rectangle_33204" data-name="Rectangle 33204" width="0.85" height="0.852" transform="translate(19.308 21.05)"/>
    <rect id="Rectangle_33205" data-name="Rectangle 33205" width="0.85" height="0.852" transform="translate(18.458 20.199)"/>
    <rect id="Rectangle_33206" data-name="Rectangle 33206" width="0.85" height="0.852" transform="translate(20.159 18.494)"/>
    <rect id="Rectangle_33207" data-name="Rectangle 33207" width="0.85" height="0.852" transform="translate(21.009 19.346)"/>
    <rect id="Rectangle_33208" data-name="Rectangle 33208" width="0.85" height="0.852" transform="translate(21.86 20.199)"/>
    <rect id="Rectangle_33209" data-name="Rectangle 33209" width="0.85" height="0.852" transform="translate(22.71 21.05)"/>
    <rect id="Rectangle_33210" data-name="Rectangle 33210" width="0.85" height="0.852" transform="translate(21.009 17.641)"/>
    <rect id="Rectangle_33211" data-name="Rectangle 33211" width="0.85" height="0.852" transform="translate(21.86 17.641)"/>
    <rect id="Rectangle_33212" data-name="Rectangle 33212" width="0.85" height="0.852" transform="translate(22.71 18.494)"/>
    <rect id="Rectangle_33213" data-name="Rectangle 33213" width="0.85" height="0.852" transform="translate(23.562 18.494)"/>
    <rect id="Rectangle_33214" data-name="Rectangle 33214" width="0.85" height="0.852" transform="translate(25.263 16.789)"/>
    <rect id="Rectangle_33215" data-name="Rectangle 33215" width="0.85" height="0.852" transform="translate(24.412 16.789)"/>
    <rect id="Rectangle_33216" data-name="Rectangle 33216" width="0.85" height="0.852" transform="translate(23.562 16.789)"/>
    <rect id="Rectangle_33217" data-name="Rectangle 33217" width="0.85" height="0.852" transform="translate(22.71 15.937)"/>
    <rect id="Rectangle_33218" data-name="Rectangle 33218" width="0.85" height="0.852" transform="translate(21.86 15.937)"/>
    <rect id="Rectangle_33219" data-name="Rectangle 33219" width="3.402" height="0.852" transform="translate(22.71 14.233)"/>
    <rect id="Rectangle_33220" data-name="Rectangle 33220" width="0.85" height="0.852" transform="translate(21.86 12.529)"/>
    <rect id="Rectangle_33221" data-name="Rectangle 33221" width="0.85" height="0.852" transform="translate(22.71 12.529)"/>
    <rect id="Rectangle_33222" data-name="Rectangle 33222" width="0.85" height="0.852" transform="translate(25.263 11.676)"/>
    <rect id="Rectangle_33223" data-name="Rectangle 33223" width="1.701" height="0.852" transform="translate(23.562 12.529)"/>
    <rect id="Rectangle_33224" data-name="Rectangle 33224" width="1.701" height="0.852" transform="translate(21.86 10.824)"/>
    <rect id="Rectangle_33225" data-name="Rectangle 33225" width="2.551" height="0.852" transform="translate(23.562 9.971)"/>
    <path id="Path_3380" data-name="Path 3380" d="M1103.38,401.676h0Z" transform="translate(-1079.818 -394.262)"/>
    <rect id="Rectangle_33226" data-name="Rectangle 33226" width="0.85" height="0.852" transform="translate(24.412 7.415)"/>
    <rect id="Rectangle_33227" data-name="Rectangle 33227" width="0.85" height="0.852" transform="translate(23.562 7.415)"/>
    <rect id="Rectangle_33228" data-name="Rectangle 33228" width="0.85" height="0.852" transform="translate(22.71 8.267)"/>
    <rect id="Rectangle_33229" data-name="Rectangle 33229" width="0.85" height="0.852" transform="translate(21.86 8.267)"/>
    <rect id="Rectangle_33230" data-name="Rectangle 33230" width="0.85" height="0.852" transform="translate(21.009 9.119)"/>
    <rect id="Rectangle_33231" data-name="Rectangle 33231" width="0.85" height="0.852" transform="translate(20.159 7.415)"/>
    <rect id="Rectangle_33232" data-name="Rectangle 33232" width="0.85" height="0.852" transform="translate(21.009 6.562)"/>
    <rect id="Rectangle_33233" data-name="Rectangle 33233" width="0.85" height="0.852" transform="translate(21.86 5.71)"/>
    <rect id="Rectangle_33234" data-name="Rectangle 33234" width="0.85" height="0.852" transform="translate(18.458 6.562)"/>
    <rect id="Rectangle_33235" data-name="Rectangle 33235" width="0.85" height="0.852" transform="translate(19.308 5.71)"/>
    <rect id="Rectangle_33236" data-name="Rectangle 33236" width="0.85" height="0.852" transform="translate(20.159 4.857)"/>
    <rect id="Rectangle_33237" data-name="Rectangle 33237" width="0.85" height="0.852" transform="translate(20.159 4.006)"/>
    <rect id="Rectangle_33238" data-name="Rectangle 33238" width="0.85" height="0.852" transform="translate(16.757 5.71)"/>
    <rect id="Rectangle_33239" data-name="Rectangle 33239" width="0.85" height="0.852" transform="translate(17.607 4.857)"/>
    <rect id="Rectangle_33240" data-name="Rectangle 33240" width="0.85" height="0.852" transform="translate(17.607 4.006)"/>
    <rect id="Rectangle_33241" data-name="Rectangle 33241" width="0.85" height="0.852" transform="translate(18.458 3.154)"/>
    <rect id="Rectangle_33242" data-name="Rectangle 33242" width="0.85" height="0.852" transform="translate(18.458 2.301)"/>
    <rect id="Rectangle_33243" data-name="Rectangle 33243" width="0.85" height="0.852" transform="translate(15.905 5.71)"/>
    <rect id="Rectangle_33244" data-name="Rectangle 33244" width="0.85" height="0.852" transform="translate(15.905 4.857)"/>
    <rect id="Rectangle_33245" data-name="Rectangle 33245" width="0.85" height="0.852" transform="translate(15.905 4.006)"/>
    <rect id="Rectangle_33246" data-name="Rectangle 33246" width="0.85" height="0.852" transform="translate(16.757 3.154)"/>
    <rect id="Rectangle_33247" data-name="Rectangle 33247" width="0.85" height="0.852" transform="translate(16.757 2.301)"/>
    <rect id="Rectangle_33248" data-name="Rectangle 33248" width="0.85" height="0.852" transform="translate(13.354 4.857)"/>
    <rect id="Rectangle_33249" data-name="Rectangle 33249" width="0.85" height="3.409" transform="translate(13.354 2.301)"/>
    <rect id="Rectangle_33250" data-name="Rectangle 33250" width="0.85" height="2.556" transform="translate(11.653 2.301)"/>
    <rect id="Rectangle_33251" data-name="Rectangle 33251" width="0.85" height="0.852" transform="translate(11.653 4.857)"/>
    <rect id="Rectangle_33252" data-name="Rectangle 33252" width="0.85" height="0.852" transform="translate(9.102 2.301)"/>
    <rect id="Rectangle_33253" data-name="Rectangle 33253" width="0.85" height="0.852" transform="translate(9.102 3.154)"/>
    <rect id="Rectangle_33254" data-name="Rectangle 33254" width="0.85" height="1.705" transform="translate(9.952 4.006)"/>
    <rect id="Rectangle_33255" data-name="Rectangle 33255" width="0.85" height="0.852" transform="translate(6.549 3.154)"/>
    <rect id="Rectangle_33256" data-name="Rectangle 33256" width="0.85" height="0.852" transform="translate(7.4 4.006)"/>
    <rect id="Rectangle_33257" data-name="Rectangle 33257" width="0.85" height="0.852" transform="translate(7.4 4.857)"/>
    <rect id="Rectangle_33258" data-name="Rectangle 33258" width="0.85" height="0.852" transform="translate(8.25 5.71)"/>
    <rect id="Rectangle_33259" data-name="Rectangle 33259" width="0.85" height="0.852" transform="translate(9.102 6.562)"/>
    <rect id="Rectangle_33260" data-name="Rectangle 33260" width="0.85" height="0.852" transform="translate(4.848 5.71)"/>
    <rect id="Rectangle_33261" data-name="Rectangle 33261" width="0.85" height="0.852" transform="translate(5.699 6.562)"/>
    <rect id="Rectangle_33262" data-name="Rectangle 33262" width="0.85" height="0.852" transform="translate(6.549 7.415)"/>
    <rect id="Rectangle_33263" data-name="Rectangle 33263" width="0.85" height="0.852" transform="translate(7.4 7.415)"/>
    <rect id="Rectangle_33264" data-name="Rectangle 33264" width="0.85" height="0.852" transform="translate(3.998 7.415)"/>
    <rect id="Rectangle_33265" data-name="Rectangle 33265" width="0.85" height="0.852" transform="translate(4.848 8.267)"/>
    <rect id="Rectangle_33266" data-name="Rectangle 33266" width="1.701" height="0.852" transform="translate(5.699 9.119)"/>
    <rect id="Rectangle_33267" data-name="Rectangle 33267" width="0.85" height="0.852" transform="translate(3.148 9.971)"/>
    <rect id="Rectangle_33268" data-name="Rectangle 33268" width="0.85" height="0.852" transform="translate(3.998 9.971)"/>
    <rect id="Rectangle_33269" data-name="Rectangle 33269" width="1.701" height="0.852" transform="translate(4.848 10.824)"/>
    <rect id="Rectangle_33270" data-name="Rectangle 33270" width="4.253" height="0.852" transform="translate(2.297 12.529)"/>
    <rect id="Rectangle_33271" data-name="Rectangle 33271" width="0.85" height="0.852" transform="translate(2.297 15.085)"/>
    <rect id="Rectangle_33272" data-name="Rectangle 33272" width="3.402" height="0.852" transform="translate(3.148 14.233)"/>
    <rect id="Rectangle_33273" data-name="Rectangle 33273" width="0.85" height="0.852" transform="translate(3.148 16.789)"/>
    <rect id="Rectangle_33274" data-name="Rectangle 33274" width="0.85" height="0.852" transform="translate(3.998 16.789)"/>
    <rect id="Rectangle_33275" data-name="Rectangle 33275" width="1.701" height="0.852" transform="translate(4.848 15.937)"/>
    <rect id="Rectangle_33276" data-name="Rectangle 33276" width="0.85" height="0.852" transform="translate(3.998 19.346)"/>
    <rect id="Rectangle_33277" data-name="Rectangle 33277" width="0.85" height="0.852" transform="translate(4.848 18.494)"/>
    <rect id="Rectangle_33278" data-name="Rectangle 33278" width="0.85" height="0.852" transform="translate(5.699 17.641)"/>
    <rect id="Rectangle_33279" data-name="Rectangle 33279" width="0.85" height="0.852" transform="translate(6.549 17.641)"/>
    <rect id="Rectangle_33280" data-name="Rectangle 33280" width="0.85" height="0.852" transform="translate(5.699 21.05)"/>
    <rect id="Rectangle_33281" data-name="Rectangle 33281" width="0.85" height="0.852" transform="translate(6.549 20.199)"/>
    <rect id="Rectangle_33282" data-name="Rectangle 33282" width="0.85" height="0.852" transform="translate(7.4 19.346)"/>
    <rect id="Rectangle_33283" data-name="Rectangle 33283" width="0.85" height="0.852" transform="translate(7.4 22.755)"/>
    <rect id="Rectangle_33284" data-name="Rectangle 33284" width="0.85" height="0.852" transform="translate(7.4 21.903)"/>
    <rect id="Rectangle_33285" data-name="Rectangle 33285" width="0.85" height="0.852" transform="translate(8.25 21.05)"/>
    <rect id="Rectangle_33286" data-name="Rectangle 33286" width="0.85" height="0.852" transform="translate(9.102 20.199)"/>
    <rect id="Rectangle_33287" data-name="Rectangle 33287" width="0.85" height="0.852" transform="translate(9.102 24.459)"/>
    <rect id="Rectangle_33288" data-name="Rectangle 33288" width="0.85" height="0.852" transform="translate(9.102 23.608)"/>
    <rect id="Rectangle_33289" data-name="Rectangle 33289" width="0.85" height="0.852" transform="translate(19.308 23.608)"/>
    <rect id="Rectangle_33290" data-name="Rectangle 33290" width="0.85" height="3.409" transform="translate(15.055 22.755)"/>
    <rect id="Rectangle_33291" data-name="Rectangle 33291" width="0.85" height="0.852" transform="translate(15.905 21.903)"/>
    <rect id="Rectangle_33292" data-name="Rectangle 33292" width="1.701" height="0.852" transform="translate(9.102 19.346)" fill="#b0702f"/>
    <rect id="Rectangle_33293" data-name="Rectangle 33293" width="1.701" height="0.852" transform="translate(9.952 20.199)" fill="#b0702f"/>
    <rect id="Rectangle_33294" data-name="Rectangle 33294" width="1.701" height="0.852" transform="translate(11.653 21.05)" fill="#b0702f"/>
    <rect id="Rectangle_33295" data-name="Rectangle 33295" width="0.85" height="0.852" transform="translate(8.25 18.494)" fill="#b0702f"/>
    <rect id="Rectangle_33296" data-name="Rectangle 33296" width="0.85" height="0.852" transform="translate(7.4 17.641)" fill="#ce945f"/>
    <rect id="Rectangle_33297" data-name="Rectangle 33297" width="1.701" height="0.852" transform="translate(6.549 16.789)" fill="#eedb97"/>
    <rect id="Rectangle_33298" data-name="Rectangle 33298" width="0.85" height="0.852" transform="translate(6.549 15.937)" fill="#eedb97"/>
    <rect id="Rectangle_33299" data-name="Rectangle 33299" width="0.85" height="0.852" transform="translate(6.549 15.085)" fill="#eedb97"/>
    <rect id="Rectangle_33300" data-name="Rectangle 33300" width="0.85" height="0.852" transform="translate(6.549 14.233)" fill="#eedb97"/>
    <rect id="Rectangle_33301" data-name="Rectangle 33301" width="1.701" height="0.852" transform="translate(5.699 13.38)" fill="#eedb97"/>
    <rect id="Rectangle_33302" data-name="Rectangle 33302" width="0.85" height="0.852" transform="translate(6.549 12.529)" fill="#eedb97"/>
    <rect id="Rectangle_33303" data-name="Rectangle 33303" width="0.85" height="1.705" transform="translate(6.549 10.824)" fill="#eedb97"/>
    <rect id="Rectangle_33304" data-name="Rectangle 33304" width="1.701" height="0.852" transform="translate(6.549 9.971)" fill="#eedb97"/>
    <rect id="Rectangle_33305" data-name="Rectangle 33305" width="0.85" height="0.852" transform="translate(7.4 9.119)" fill="#eedb97"/>
    <rect id="Rectangle_33306" data-name="Rectangle 33306" width="1.701" height="0.852" transform="translate(8.25 8.267)" fill="#eedb97"/>
    <rect id="Rectangle_33307" data-name="Rectangle 33307" width="0.85" height="0.852" transform="translate(9.102 7.415)" fill="#eedb97"/>
    <rect id="Rectangle_33308" data-name="Rectangle 33308" width="0.85" height="0.852" transform="translate(9.952 6.562)" fill="#eedb97"/>
    <rect id="Rectangle_33309" data-name="Rectangle 33309" width="0.85" height="0.852" transform="translate(10.803 6.562)" fill="#eedb97"/>
    <rect id="Rectangle_33310" data-name="Rectangle 33310" width="0.85" height="0.852" transform="translate(11.653 5.71)" fill="#eedb97"/>
    <rect id="Rectangle_33311" data-name="Rectangle 33311" width="1.701" height="0.852" transform="translate(12.504 5.71)" fill="#eedb97"/>
    <rect id="Rectangle_33312" data-name="Rectangle 33312" width="1.701" height="0.852" transform="translate(14.205 5.71)" fill="#eedb97"/>
    <rect id="Rectangle_33313" data-name="Rectangle 33313" width="0.85" height="0.852" transform="translate(15.905 5.71)" fill="#eedb97"/>
    <rect id="Rectangle_33314" data-name="Rectangle 33314" width="1.701" height="0.852" transform="translate(16.757 6.562)" fill="#f9f1d7"/>
    <rect id="Rectangle_33315" data-name="Rectangle 33315" width="1.701" height="0.852" transform="translate(18.458 7.415)" fill="#eedb97"/>
    <rect id="Rectangle_33316" data-name="Rectangle 33316" width="0.85" height="0.852" transform="translate(19.308 8.267)" fill="#eedb97"/>
    <rect id="Rectangle_33317" data-name="Rectangle 33317" width="0.85" height="0.852" transform="translate(20.159 9.119)" fill="#eedb97"/>
    <rect id="Rectangle_33318" data-name="Rectangle 33318" width="1.701" height="0.852" transform="translate(20.159 9.971)" fill="#eedb97"/>
    <rect id="Rectangle_33319" data-name="Rectangle 33319" width="0.85" height="0.852" transform="translate(21.009 10.824)" fill="#eedb97"/>
    <rect id="Rectangle_33320" data-name="Rectangle 33320" width="0.85" height="0.852" transform="translate(21.009 11.676)" fill="#eedb97"/>
    <rect id="Rectangle_33321" data-name="Rectangle 33321" width="0.85" height="0.852" transform="translate(21.009 12.529)" fill="#eedb97"/>
    <rect id="Rectangle_33322" data-name="Rectangle 33322" width="0.85" height="0.852" transform="translate(21.009 13.38)" fill="#eedb97"/>
    <rect id="Rectangle_33323" data-name="Rectangle 33323" width="0.85" height="1.705" transform="translate(21.009 14.233)" fill="#eedb97"/>
    <rect id="Rectangle_33324" data-name="Rectangle 33324" width="0.85" height="0.852" transform="translate(21.009 15.937)" fill="#eedb97"/>
    <rect id="Rectangle_33325" data-name="Rectangle 33325" width="0.85" height="0.852" transform="translate(20.159 16.789)" fill="#eedb97"/>
    <rect id="Rectangle_33326" data-name="Rectangle 33326" width="0.85" height="0.852" transform="translate(20.159 17.641)" fill="#eedb97"/>
    <rect id="Rectangle_33327" data-name="Rectangle 33327" width="0.85" height="0.852" transform="translate(19.308 18.494)" fill="#eedb97"/>
    <rect id="Rectangle_33328" data-name="Rectangle 33328" width="0.85" height="0.852" transform="translate(18.458 19.346)" fill="#eedb97"/>
    <rect id="Rectangle_33329" data-name="Rectangle 33329" width="0.85" height="0.852" transform="translate(17.607 20.199)" fill="#eedb97"/>
    <rect id="Rectangle_33330" data-name="Rectangle 33330" width="0.85" height="0.852" transform="translate(16.757 20.199)" fill="#eedb97"/>
    <rect id="Rectangle_33331" data-name="Rectangle 33331" width="3.402" height="0.852" transform="translate(13.354 21.05)" fill="#eedb97"/>
    <rect id="Rectangle_33332" data-name="Rectangle 33332" width="1.701" height="0.852" transform="translate(6.549 16.789)" fill="#ce945f"/>
    <rect id="Rectangle_33333" data-name="Rectangle 33333" width="0.85" height="0.852" transform="translate(6.549 15.937)" fill="#ce945f"/>
    <rect id="Rectangle_33334" data-name="Rectangle 33334" height="0.852" transform="translate(6.549 14.233)" fill="#ce945f"/>
    <rect id="Rectangle_33335" data-name="Rectangle 33335" width="0.85" height="0.852" transform="translate(13.354 21.05)" fill="#ce945f"/>
    <rect id="Rectangle_33336" data-name="Rectangle 33336" width="0.85" height="0.852" transform="translate(15.055 21.05)" fill="#ce945f"/>
    <rect id="Rectangle_33337" data-name="Rectangle 33337" width="1.701" height="0.852" transform="translate(15.055 5.71)" fill="#f9f1d7"/>
    <rect id="Rectangle_33338" data-name="Rectangle 33338" width="0.85" height="1.705" transform="translate(8.25 33.834)" fill="#123e7f"/>
    <rect id="Rectangle_33339" data-name="Rectangle 33339" width="0.85" height="3.409" transform="translate(9.102 31.278)" fill="#123e7f"/>
    <rect id="Rectangle_33340" data-name="Rectangle 33340" width="0.85" height="1.705" transform="translate(9.952 32.13)" fill="#123e7f"/>
    <rect id="Rectangle_33341" data-name="Rectangle 33341" width="0.85" height="1.705" transform="translate(11.653 33.834)" fill="#123e7f"/>
    <rect id="Rectangle_33342" data-name="Rectangle 33342" width="0.85" height="4.261" transform="translate(9.952 27.016)" fill="#123e7f"/>
    <rect id="Rectangle_33343" data-name="Rectangle 33343" width="0.85" height="1.705" transform="translate(15.055 26.164)" fill="#123e7f"/>
    <rect id="Rectangle_33344" data-name="Rectangle 33344" width="0.85" height="4.261" transform="translate(15.905 27.869)" fill="#123e7f"/>
    <rect id="Rectangle_33345" data-name="Rectangle 33345" width="0.85" height="3.409" transform="translate(16.757 32.13)" fill="#123e7f"/>
    <rect id="Rectangle_33346" data-name="Rectangle 33346" width="0.85" height="0.852" transform="translate(17.607 32.982)" fill="#123e7f"/>
    <rect id="Rectangle_33347" data-name="Rectangle 33347" width="0.85" height="0.852" transform="translate(19.308 32.982)" fill="#123e7f"/>
    <rect id="Rectangle_33348" data-name="Rectangle 33348" width="0.85" height="1.705" transform="translate(20.159 33.834)" fill="#123e7f"/>
    <rect id="Rectangle_33349" data-name="Rectangle 33349" width="0.85" height="0.852" transform="translate(7.4 23.608)" fill="#123e7f"/>
    <rect id="Rectangle_33350" data-name="Rectangle 33350" width="0.85" height="2.556" transform="translate(8.25 22.755)" fill="#123e7f"/>
    <rect id="Rectangle_33351" data-name="Rectangle 33351" width="0.85" height="1.705" transform="translate(5.699 21.903)" fill="#123e7f"/>
    <rect id="Rectangle_33352" data-name="Rectangle 33352" width="0.85" height="0.852" transform="translate(6.549 22.755)" fill="#123e7f"/>
    <rect id="Rectangle_33353" data-name="Rectangle 33353" width="0.85" height="0.852" transform="translate(4.848 19.346)" fill="#123e7f"/>
    <rect id="Rectangle_33354" data-name="Rectangle 33354" width="0.85" height="1.705" transform="translate(3.998 20.199)" fill="#123e7f"/>
    <rect id="Rectangle_33355" data-name="Rectangle 33355" width="0.85" height="0.852" transform="translate(4.848 21.05)" fill="#123e7f"/>
    <rect id="Rectangle_33356" data-name="Rectangle 33356" width="0.85" height="2.556" transform="translate(3.148 17.641)" fill="#123e7f"/>
    <rect id="Rectangle_33357" data-name="Rectangle 33357" width="0.85" height="1.705" transform="translate(2.297 15.937)" fill="#123e7f"/>
    <rect id="Rectangle_33358" data-name="Rectangle 33358" width="0.85" height="0.852" transform="translate(3.148 15.085)" fill="#123e7f"/>
    <rect id="Rectangle_33359" data-name="Rectangle 33359" width="0.85" height="1.705" transform="translate(1.446 13.38)" fill="#123e7f"/>
    <rect id="Rectangle_33360" data-name="Rectangle 33360" width="0.85" height="0.852" transform="translate(2.297 13.38)" fill="#123e7f"/>
    <rect id="Rectangle_33361" data-name="Rectangle 33361" width="0.85" height="0.852" transform="translate(1.446 11.676)" fill="#123e7f"/>
    <rect id="Rectangle_33362" data-name="Rectangle 33362" width="1.701" height="0.852" transform="translate(2.297 10.824)" fill="#123e7f"/>
    <rect id="Rectangle_33363" data-name="Rectangle 33363" width="0.85" height="0.852" transform="translate(2.297 9.119)" fill="#123e7f"/>
    <rect id="Rectangle_33364" data-name="Rectangle 33364" width="1.701" height="0.852" transform="translate(3.148 8.267)" fill="#123e7f"/>
    <rect id="Rectangle_33365" data-name="Rectangle 33365" width="2.551" height="0.852" transform="translate(3.148 6.562)" fill="#123e7f"/>
    <rect id="Rectangle_33366" data-name="Rectangle 33366" width="0.85" height="0.852" transform="translate(4.848 4.857)" fill="#123e7f"/>
    <rect id="Rectangle_33367" data-name="Rectangle 33367" width="0.85" height="0.852" transform="translate(6.549 4.006)" fill="#123e7f"/>
    <rect id="Rectangle_33368" data-name="Rectangle 33368" width="0.85" height="1.705" transform="translate(8.25 2.301)" fill="#123e7f"/>
    <rect id="Rectangle_33369" data-name="Rectangle 33369" width="0.85" height="0.852" transform="translate(9.102 4.006)" fill="#123e7f"/>
    <rect id="Rectangle_33370" data-name="Rectangle 33370" width="0.85" height="1.705" transform="translate(10.803 2.301)" fill="#123e7f"/>
    <rect id="Rectangle_33371" data-name="Rectangle 33371" height="0.852" transform="translate(13.354 2.301)" fill="#123e7f"/>
    <rect id="Rectangle_33372" data-name="Rectangle 33372" width="0.85" height="1.705" transform="translate(15.905 2.301)" fill="#123e7f"/>
    <rect id="Rectangle_33373" data-name="Rectangle 33373" width="0.85" height="0.852" transform="translate(17.607 1.449)" fill="#123e7f"/>
    <rect id="Rectangle_33374" data-name="Rectangle 33374" width="1.701" height="0.852" transform="translate(17.607 5.71)" fill="#123e7f"/>
    <rect id="Rectangle_33375" data-name="Rectangle 33375" width="0.85" height="0.852" transform="translate(18.458 4.857)" fill="#123e7f"/>
    <rect id="Rectangle_33376" data-name="Rectangle 33376" width="1.701" height="0.852" transform="translate(19.308 6.562)" fill="#123e7f"/>
    <rect id="Rectangle_33377" data-name="Rectangle 33377" width="0.85" height="0.852" transform="translate(16.757 4.857)" fill="#123e7f"/>
    <rect id="Rectangle_33378" data-name="Rectangle 33378" width="0.85" height="0.852" transform="translate(14.205 4.857)" fill="#123e7f"/>
    <path id="Path_3381" data-name="Path 3381" d="M1085.262,397.486h0Z" transform="translate(-1072.758 -392.629)" fill="#123e7f"/>
    <rect id="Rectangle_33379" data-name="Rectangle 33379" width="0.85" height="0.852" transform="translate(15.055 4.857)" fill="#123e7f"/>
    <rect id="Rectangle_33380" data-name="Rectangle 33380" width="0.85" height="0.852" transform="translate(12.504 4.857)" fill="#123e7f"/>
    <rect id="Rectangle_33381" data-name="Rectangle 33381" width="0.85" height="0.852" transform="translate(10.803 4.857)" fill="#123e7f"/>
    <rect id="Rectangle_33382" data-name="Rectangle 33382" width="1.701" height="0.852" transform="translate(9.952 5.71)" fill="#123e7f"/>
    <rect id="Rectangle_33383" data-name="Rectangle 33383" width="0.85" height="1.705" transform="translate(21.009 7.415)" fill="#123e7f"/>
    <rect id="Rectangle_33384" data-name="Rectangle 33384" width="0.85" height="0.852" transform="translate(20.159 8.267)" fill="#123e7f"/>
    <rect id="Rectangle_33385" data-name="Rectangle 33385" width="0.85" height="0.852" transform="translate(21.86 6.562)" fill="#123e7f"/>
    <rect id="Rectangle_33386" data-name="Rectangle 33386" width="0.85" height="1.705" transform="translate(21.86 9.119)" fill="#123e7f"/>
    <rect id="Rectangle_33387" data-name="Rectangle 33387" width="0.85" height="0.852" transform="translate(22.71 9.119)" fill="#123e7f"/>
    <rect id="Rectangle_33388" data-name="Rectangle 33388" width="1.701" height="0.852" transform="translate(21.86 11.676)" fill="#123e7f"/>
    <rect id="Rectangle_33389" data-name="Rectangle 33389" width="0.85" height="2.556" transform="translate(21.86 13.38)" fill="#123e7f"/>
    <rect id="Rectangle_33390" data-name="Rectangle 33390" width="0.85" height="0.852" transform="translate(22.71 13.38)" fill="#123e7f"/>
    <rect id="Rectangle_33391" data-name="Rectangle 33391" width="0.85" height="0.852" transform="translate(23.562 13.38)" fill="#123e7f"/>
    <rect id="Rectangle_33392" data-name="Rectangle 33392" width="1.701" height="0.852" transform="translate(21.86 16.789)" fill="#123e7f"/>
    <rect id="Rectangle_33393" data-name="Rectangle 33393" width="0.85" height="0.852" transform="translate(21.009 16.789)" fill="#123e7f"/>
    <rect id="Rectangle_33394" data-name="Rectangle 33394" width="1.701" height="0.852" transform="translate(21.009 18.494)" fill="#123e7f"/>
    <rect id="Rectangle_33395" data-name="Rectangle 33395" width="1.701" height="0.852" transform="translate(19.308 19.346)" fill="#123e7f"/>
    <rect id="Rectangle_33396" data-name="Rectangle 33396" width="0.85" height="0.852" transform="translate(21.009 20.199)" fill="#123e7f"/>
    <rect id="Rectangle_33397" data-name="Rectangle 33397" width="0.85" height="0.852" transform="translate(19.308 20.199)" fill="#123e7f"/>
    <rect id="Rectangle_33398" data-name="Rectangle 33398" width="0.85" height="0.852" transform="translate(18.458 21.05)" fill="#123e7f"/>
    <rect id="Rectangle_33399" data-name="Rectangle 33399" width="0.85" height="0.852" transform="translate(19.308 21.903)" fill="#123e7f"/>
    <rect id="Rectangle_33400" data-name="Rectangle 33400" width="0.85" height="0.852" transform="translate(19.308 22.755)" fill="#123e7f"/>
    <rect id="Rectangle_33401" data-name="Rectangle 33401" width="0.85" height="0.852" transform="translate(20.159 23.608)" fill="#123e7f"/>
    <rect id="Rectangle_33402" data-name="Rectangle 33402" width="0.85" height="3.409" transform="translate(10.803 21.05)" fill="#123e7f"/>
    <rect id="Rectangle_33403" data-name="Rectangle 33403" width="1.701" height="1.705" transform="translate(11.653 21.903)" fill="#123e7f"/>
    <rect id="Rectangle_33404" data-name="Rectangle 33404" width="1.701" height="0.852" transform="translate(13.354 21.903)" fill="#123e7f"/>
    <rect id="Rectangle_33405" data-name="Rectangle 33405" width="0.85" height="0.852" transform="translate(14.205 22.755)" fill="#123e7f"/>
    <rect id="Rectangle_33406" data-name="Rectangle 33406" width="0.85" height="0.852" transform="translate(15.055 21.903)" fill="#123e7f"/>
    <rect id="Rectangle_33407" data-name="Rectangle 33407" width="0.85" height="2.556" transform="translate(15.905 22.755)" fill="#123e7f"/>
    <rect id="Rectangle_33408" data-name="Rectangle 33408" width="0.85" height="2.556" transform="translate(16.757 21.05)" fill="#123e7f"/>
    <rect id="Rectangle_33409" data-name="Rectangle 33409" width="0.85" height="1.705" transform="translate(17.607 21.903)" fill="#123e7f"/>
    <rect id="Rectangle_33410" data-name="Rectangle 33410" width="0.85" height="0.852" transform="translate(18.458 24.459)" fill="#123e7f"/>
    <rect id="Rectangle_33411" data-name="Rectangle 33411" width="0.85" height="5.965" transform="translate(7.4 10.824)" fill="#123e7f"/>
    <rect id="Rectangle_33412" data-name="Rectangle 33412" width="0.85" height="4.261" transform="translate(8.25 14.233)" fill="#123e7f"/>
    <rect id="Rectangle_33413" data-name="Rectangle 33413" width="0.85" height="3.409" transform="translate(9.102 15.937)" fill="#123e7f"/>
    <rect id="Rectangle_33414" data-name="Rectangle 33414" width="0.85" height="1.705" transform="translate(9.952 17.641)" fill="#123e7f"/>
    <rect id="Rectangle_33415" data-name="Rectangle 33415" width="0.85" height="2.556" transform="translate(10.803 17.641)" fill="#123e7f"/>
    <rect id="Rectangle_33416" data-name="Rectangle 33416" width="0.85" height="2.556" transform="translate(11.653 18.494)" fill="#123e7f"/>
    <rect id="Rectangle_33417" data-name="Rectangle 33417" width="3.403" height="1.705" transform="translate(12.504 19.346)" fill="#123e7f"/>
    <rect id="Rectangle_33418" data-name="Rectangle 33418" width="0.85" height="1.705" transform="translate(15.905 19.346)" fill="#123e7f"/>
    <rect id="Rectangle_33419" data-name="Rectangle 33419" width="0.85" height="1.705" transform="translate(16.757 18.494)" fill="#123e7f"/>
    <rect id="Rectangle_33420" data-name="Rectangle 33420" width="0.85" height="1.705" transform="translate(17.607 18.494)" fill="#123e7f"/>
    <rect id="Rectangle_33421" data-name="Rectangle 33421" width="0.85" height="1.705" transform="translate(18.458 17.641)" fill="#123e7f"/>
    <rect id="Rectangle_33422" data-name="Rectangle 33422" width="0.85" height="0.852" transform="translate(19.308 17.641)" fill="#123e7f"/>
    <rect id="Rectangle_33423" data-name="Rectangle 33423" width="0.85" height="0.852" transform="translate(19.308 16.789)" fill="#123e7f"/>
    <rect id="Rectangle_33424" data-name="Rectangle 33424" width="5.104" height="0.852" transform="translate(11.653 6.562)" fill="#5ab8f2"/>
    <rect id="Rectangle_33425" data-name="Rectangle 33425" width="1.701" height="0.852" transform="translate(16.757 7.415)" fill="#5ab8f2"/>
    <rect id="Rectangle_33426" data-name="Rectangle 33426" width="1.701" height="0.852" transform="translate(17.607 8.267)" fill="#5ab8f2"/>
    <rect id="Rectangle_33427" data-name="Rectangle 33427" width="1.701" height="0.852" transform="translate(18.458 9.119)" fill="#5ab8f2"/>
    <rect id="Rectangle_33428" data-name="Rectangle 33428" width="0.85" height="0.852" transform="translate(19.308 9.971)" fill="#5ab8f2"/>
    <rect id="Rectangle_33429" data-name="Rectangle 33429" width="0.85" height="0.852" transform="translate(20.159 10.824)" fill="#5ab8f2"/>
    <rect id="Rectangle_33430" data-name="Rectangle 33430" width="0.85" height="3.409" transform="translate(20.159 11.676)" fill="#5ab8f2"/>
    <rect id="Rectangle_33431" data-name="Rectangle 33431" width="0.85" height="0.852" transform="translate(9.952 7.415)" fill="#5ab8f2"/>
  </g>
  <path id="Path_5473" data-name="Path 5473" d="M2.571,2.274a2.71,2.71,0,0,1-1.209-.267A2.031,2.031,0,0,1,.5,1.2,2.606,2.606,0,0,1,.176-.151a2.785,2.785,0,0,1,.19-1.062A2.3,2.3,0,0,1,.884-2a2.2,2.2,0,0,1,.756-.486,2.49,2.49,0,0,1,.9-.164,2.085,2.085,0,0,1,.913.186,2.211,2.211,0,0,1,.635.442l-.657.8a1.8,1.8,0,0,0-.369-.252,1.046,1.046,0,0,0-.478-.1,1.03,1.03,0,0,0-.8.361A1.471,1.471,0,0,0,1.461-.194a1.554,1.554,0,0,0,.3,1.026,1.156,1.156,0,0,0,.938.361.923.923,0,0,0,.2-.022.483.483,0,0,0,.164-.066V.448h-.7V-.574H4.178V1.69A2.063,2.063,0,0,1,3.5,2.1,2.475,2.475,0,0,1,2.571,2.274ZM5.1,2.186V-2.56h1.8a3.135,3.135,0,0,1,.942.135,1.382,1.382,0,0,1,.694.471,1.469,1.469,0,0,1,.263.927,1.562,1.562,0,0,1-.212.847,1.512,1.512,0,0,1-.555.526l1.03,1.84h-1.4L6.836.594H6.354V2.186ZM6.354-.4h.453q.759,0,.759-.628a.454.454,0,0,0-.194-.424,1.109,1.109,0,0,0-.566-.117H6.354Z" transform="translate(9.463 12.712)" fill="#f9fafb"/>
</svg>
