<svg xmlns="http://www.w3.org/2000/svg" width="25.754" height="35.068" viewBox="0 0 25.754 35.068">
  <g id="Group_7361" data-name="Group 7361" transform="translate(0 0)">
    <g id="Group_24580" data-name="Group 24580">
      <path id="Path_3372" data-name="Path 3372" d="M1158.265,345.952v-7.746h1.03v-1.03h1.028v-1.031h1.029v-1.03h2.056v-1.527h-1.028v-2.593h1.028v-2.56h-3.09V327.4h-2.053v-1.031h-1.029v-1.03h-1.028v-1.03h-1.029v-2.061h-1.033V320.2h-1.03v-3.628h1.03v-1.03h1.028V314.5h1.029v-2.055h1.028v-1.024h16.988v1.03h1.028V314.5h1.029v1.031h1.028v1.03h1.03V320.2h-1.03v2.061h-1.028v2.061h-1.029v1.03h-1.028v1.03h-1.027v1.031h-2.059v1.03h-3.085V331h1.028v2.589h-1.028v1.529h2.057v1.03h1.027v1.031h1.028v1.028h1.03v7.746Zm14.4-22.166v-1.528h-.5v1.528Zm-13.367,0v-1.528h-.5v1.528Zm14.4-2.061v-2.066h1.029v-1.529h-.5v1.031H1173.2v2.559Zm-15.431,0v-2.559h-1.029v-1.031h-.508v1.529h1.028v2.061Z" transform="translate(-1152.854 -311.15)" fill="#e1a125"/>
      <path id="Path_3373" data-name="Path 3373" d="M1173.875,311.6v1.03h1.03v2.062h1.027v1.031h1.028v1.03h1.029v3.091h-1.029v2.061h-1.028v2.058H1174.9v1.03h-1.03v1.031h-1.028v1.03h-2.062v1.03h-3.073v3.091h1.028v2.061h-1.028V335.3h2.057v1.03h1.016v1.028h1.028v1.03h1.03V345.6h-14.4v-7.207h1.029v-1.036h1.028v-1.031h1.029v-1.03h2.057v-2.056h-1.028v-2.061h1.028v-3.091H1160.5v-1.03h-2.057v-1.03h-1.03V325h-1.028v-1.033h-1.029v-2.058h-1.029v-2.061H1153.3v-3.091h1.029v-1.03h1.029v-1.031h1.029v-2.062h1.028V311.6h16.456m-2.056,12.362h1.029v-2.058h1.028v-2.061h1.03v-2.061h-1.03v1.031h-1.028v3.091h-1.029v2.058m-15.427-4.122h1.026V321.9h1.028v2.061h1.03v-2.058h-1.03v-3.091h-1.028v-1.031h-1.028v2.061m5.141,5.152h0m12.874-13.927h-17.516v1.03h-1.028v2.061h-1.028v1.03H1153.8v1.031h-1.029v4.156h1.029v2.061h1.029V324.5h1.028v1.03h1.028v1.03h1.028v1.031h2.058v1.03h3.085v2.026h-1.033v3.126h1.028v1H1161v1.03h-1.029v1.031h-1.028v1.03h-1.03v8.279h15.464v-8.279h-1.031v-1.03h-1.027V335.8h-1.028v-1.03h-2.056v-1h1.026v-3.126h-1.026V328.62h3.084v-1.03h2.058v-1.031h1.027v-1.03h1.03V324.5h1.033v-2.062h1.028v-2.061h1.03v-4.156h-1.03v-1.031h-1.028v-1.031h-1.028V312.1h-1.03v-1.03Z" transform="translate(-1152.774 -311.069)" fill="#fff"/>
      <path id="Path_3374" data-name="Path 3374" d="M1175.261,313.1h-16.455v2.061l1.028,4.122,1.029,3.091,1.027,2.061,3.085,3.091v8.243l-2.057,1.03-1.028,1.031-1.027,1.03v6.182H1173.2v-6.182l-1.028-1.03-1.028-1.031-2.057-1.03v-8.243l3.085-3.091,1.028-2.061,1.03-3.091,1.028-4.122Z" transform="translate(-1154.16 -311.535)" fill="#f2bf1b"/>
      <path id="Path_3375" data-name="Path 3375" d="M1157.885,317.113h-2.058l-1.028,1.03v3.091l1.028,2.061,1.028,2.061,2.057,2.061,2.057,1.03h2.058v-1.03l-4.115-2.061-1.027-2.061-1.03-2.061v-2.061h1.03Z" transform="translate(-1153.24 -312.458)" fill="#f2bf1b"/>
      <path id="Path_3376" data-name="Path 3376" d="M1173.807,346.544h-12.341l-.037,4.122h12.378Z" transform="translate(-1154.764 -319.222)" fill="#7b493b"/>
    </g>
    <rect id="Rectangle_32862" data-name="Rectangle 32862" width="1.028" height="4.122" transform="translate(7.73 27.322)" fill="#643931"/>
    <rect id="Rectangle_32863" data-name="Rectangle 32863" width="1.028" height="4.122" transform="translate(8.758 27.322)" fill="#643931"/>
    <rect id="Rectangle_32864" data-name="Rectangle 32864" width="4.115" height="4.122" transform="translate(12.873 27.322)" fill="#905d3e"/>
    <path id="Path_3377" data-name="Path 3377" d="M1178.637,317.113h2.057l1.028,1.03v3.091l-1.028,2.061-1.028,2.061-1.029,1.03-1.028,1.031-2.058,1.03h-2.057v-1.03h2.057v-1.031l2.058-1.03,1.028-2.061,1.029-2.061v-2.061h-1.029Z" transform="translate(-1157.536 -312.458)" fill="#f2bf1b"/>
    <rect id="Rectangle_32865" data-name="Rectangle 32865" width="1.028" height="1.03" transform="translate(11.845 0.532)"/>
    <rect id="Rectangle_32866" data-name="Rectangle 32866" width="1.028" height="1.03" transform="translate(10.816 0.532)"/>
    <rect id="Rectangle_32867" data-name="Rectangle 32867" width="1.028" height="1.03" transform="translate(9.788 0.532)"/>
    <rect id="Rectangle_32868" data-name="Rectangle 32868" width="1.028" height="1.03" transform="translate(8.758 0.532)"/>
    <rect id="Rectangle_32869" data-name="Rectangle 32869" width="1.028" height="1.03" transform="translate(7.73 0.532)"/>
    <rect id="Rectangle_32870" data-name="Rectangle 32870" width="1.028" height="1.03" transform="translate(6.702 0.532)"/>
    <rect id="Rectangle_32871" data-name="Rectangle 32871" width="1.028" height="1.03" transform="translate(5.673 0.532)"/>
    <rect id="Rectangle_32872" data-name="Rectangle 32872" width="1.028" height="1.03" transform="translate(4.645 0.532)"/>
    <rect id="Rectangle_32873" data-name="Rectangle 32873" width="1.028" height="1.03" transform="translate(3.617 1.562)"/>
    <rect id="Rectangle_32874" data-name="Rectangle 32874" width="1.028" height="1.03" transform="translate(3.617 2.594)"/>
    <rect id="Rectangle_32875" data-name="Rectangle 32875" width="1.028" height="1.03" transform="translate(4.645 3.623)"/>
    <rect id="Rectangle_32876" data-name="Rectangle 32876" width="1.028" height="1.03" transform="translate(3.617 3.623)"/>
    <rect id="Rectangle_32877" data-name="Rectangle 32877" width="1.028" height="1.03" transform="translate(2.588 3.623)"/>
    <rect id="Rectangle_32878" data-name="Rectangle 32878" width="1.028" height="1.03" transform="translate(1.56 4.655)"/>
    <rect id="Rectangle_32879" data-name="Rectangle 32879" width="1.028" height="1.03" transform="translate(0.53 5.684)"/>
    <rect id="Rectangle_32880" data-name="Rectangle 32880" width="1.028" height="1.03" transform="translate(0.53 6.714)"/>
    <rect id="Rectangle_32881" data-name="Rectangle 32881" width="1.028" height="1.03" transform="translate(0.53 7.746)"/>
    <rect id="Rectangle_32882" data-name="Rectangle 32882" width="1.028" height="1.03" transform="translate(1.56 8.775)"/>
    <rect id="Rectangle_32883" data-name="Rectangle 32883" width="1.028" height="1.03" transform="translate(1.56 9.807)"/>
    <rect id="Rectangle_32884" data-name="Rectangle 32884" width="1.028" height="1.03" transform="translate(2.588 10.836)"/>
    <rect id="Rectangle_32885" data-name="Rectangle 32885" width="1.028" height="1.03" transform="translate(2.588 11.866)"/>
    <rect id="Rectangle_32886" data-name="Rectangle 32886" width="1.028" height="1.03" transform="translate(3.617 12.897)"/>
    <rect id="Rectangle_32887" data-name="Rectangle 32887" width="1.028" height="1.03" transform="translate(4.645 13.927)"/>
    <rect id="Rectangle_32888" data-name="Rectangle 32888" width="1.028" height="1.03" transform="translate(5.673 14.957)"/>
    <rect id="Rectangle_32889" data-name="Rectangle 32889" width="1.028" height="1.03" transform="translate(6.702 14.957)"/>
    <rect id="Rectangle_32890" data-name="Rectangle 32890" width="3.085" height="1.03" transform="translate(7.73 15.988)"/>
    <rect id="Rectangle_32891" data-name="Rectangle 32891" width="1.028" height="1.03" transform="translate(4.645 4.655)"/>
    <rect id="Rectangle_32892" data-name="Rectangle 32892" width="1.028" height="1.03" transform="translate(4.645 5.684)"/>
    <rect id="Rectangle_32893" data-name="Rectangle 32893" width="1.028" height="1.03" transform="translate(3.617 5.684)"/>
    <rect id="Rectangle_32894" data-name="Rectangle 32894" width="1.028" height="1.03" transform="translate(2.588 5.684)"/>
    <rect id="Rectangle_32895" data-name="Rectangle 32895" width="1.028" height="1.03" transform="translate(2.588 6.714)"/>
    <rect id="Rectangle_32896" data-name="Rectangle 32896" width="1.028" height="1.03" transform="translate(2.588 7.746)"/>
    <rect id="Rectangle_32897" data-name="Rectangle 32897" width="1.028" height="1.03" transform="translate(3.617 8.775)"/>
    <rect id="Rectangle_32898" data-name="Rectangle 32898" width="1.028" height="1.03" transform="translate(3.617 9.807)"/>
    <rect id="Rectangle_32899" data-name="Rectangle 32899" width="1.028" height="1.03" transform="translate(4.645 10.836)"/>
    <rect id="Rectangle_32900" data-name="Rectangle 32900" width="1.028" height="1.03" transform="translate(4.645 11.866)"/>
    <rect id="Rectangle_32901" data-name="Rectangle 32901" width="1.028" height="1.03" transform="translate(5.673 12.897)"/>
    <rect id="Rectangle_32902" data-name="Rectangle 32902" width="1.028" height="1.03" transform="translate(6.702 12.897)"/>
    <rect id="Rectangle_32903" data-name="Rectangle 32903" width="1.028" height="1.03" transform="translate(4.645 6.714)"/>
    <rect id="Rectangle_32904" data-name="Rectangle 32904" width="1.028" height="1.03" transform="translate(5.673 7.746)"/>
    <rect id="Rectangle_32905" data-name="Rectangle 32905" width="1.028" height="1.03" transform="translate(5.673 8.775)"/>
    <rect id="Rectangle_32906" data-name="Rectangle 32906" width="1.028" height="1.03" transform="translate(5.673 9.807)"/>
    <rect id="Rectangle_32907" data-name="Rectangle 32907" width="1.028" height="1.03" transform="translate(6.702 10.836)"/>
    <rect id="Rectangle_32908" data-name="Rectangle 32908" width="1.028" height="1.03" transform="translate(6.702 11.866)"/>
    <rect id="Rectangle_32909" data-name="Rectangle 32909" width="1.028" height="1.03" transform="translate(7.73 12.897)"/>
    <rect id="Rectangle_32910" data-name="Rectangle 32910" width="1.028" height="1.03" transform="translate(7.73 13.927)"/>
    <rect id="Rectangle_32911" data-name="Rectangle 32911" width="1.028" height="1.03" transform="translate(8.758 13.927)"/>
    <rect id="Rectangle_32912" data-name="Rectangle 32912" width="1.028" height="1.03" transform="translate(9.788 14.957)"/>
    <rect id="Rectangle_32913" data-name="Rectangle 32913" width="1.028" height="1.03" transform="translate(10.816 15.988)"/>
    <rect id="Rectangle_32914" data-name="Rectangle 32914" width="1.028" height="1.03" transform="translate(10.816 17.018)"/>
    <rect id="Rectangle_32915" data-name="Rectangle 32915" width="1.028" height="1.03" transform="translate(10.816 18.049)"/>
    <rect id="Rectangle_32916" data-name="Rectangle 32916" width="1.028" height="1.03" transform="translate(10.816 19.079)"/>
    <rect id="Rectangle_32917" data-name="Rectangle 32917" width="1.028" height="1.03" transform="translate(9.788 20.109)"/>
    <rect id="Rectangle_32918" data-name="Rectangle 32918" width="1.028" height="1.03" transform="translate(9.788 21.14)"/>
    <rect id="Rectangle_32919" data-name="Rectangle 32919" width="1.028" height="1.03" transform="translate(10.816 22.17)"/>
    <rect id="Rectangle_32920" data-name="Rectangle 32920" width="1.028" height="1.03" transform="translate(10.816 23.201)"/>
    <rect id="Rectangle_32921" data-name="Rectangle 32921" width="1.028" height="1.03" transform="translate(9.788 24.231)"/>
    <rect id="Rectangle_32922" data-name="Rectangle 32922" width="1.028" height="1.03" transform="translate(8.758 24.231)"/>
    <rect id="Rectangle_32923" data-name="Rectangle 32923" width="4.187" height="1.03" transform="translate(8.758 27.838)"/>
    <rect id="Rectangle_32924" data-name="Rectangle 32924" width="1.028" height="1.03" transform="translate(8.758 28.867)"/>
    <rect id="Rectangle_32925" data-name="Rectangle 32925" width="4.187" height="1.03" transform="translate(8.758 29.899)"/>
    <rect id="Rectangle_32926" data-name="Rectangle 32926" width="1.028" height="1.03" transform="translate(7.73 25.261)"/>
    <rect id="Rectangle_32927" data-name="Rectangle 32927" width="1.028" height="1.03" transform="translate(5.673 27.322)"/>
    <rect id="Rectangle_32928" data-name="Rectangle 32928" width="1.028" height="1.03" transform="translate(5.673 28.353)"/>
    <rect id="Rectangle_32929" data-name="Rectangle 32929" width="1.028" height="1.03" transform="translate(5.673 29.383)"/>
    <rect id="Rectangle_32930" data-name="Rectangle 32930" width="1.028" height="1.03" transform="translate(5.673 30.413)"/>
    <rect id="Rectangle_32931" data-name="Rectangle 32931" width="7.272" height="1.03" transform="translate(5.673 31.444)"/>
    <rect id="Rectangle_32932" data-name="Rectangle 32932" width="1.028" height="1.03" transform="translate(5.673 32.474)"/>
    <rect id="Rectangle_32933" data-name="Rectangle 32933" width="7.272" height="1.03" transform="translate(5.673 33.505)"/>
    <rect id="Rectangle_32934" data-name="Rectangle 32934" width="1.028" height="1.03" transform="translate(10.816 24.231)"/>
    <rect id="Rectangle_32935" data-name="Rectangle 32935" width="1.028" height="1.03" transform="translate(11.845 24.231)"/>
    <rect id="Rectangle_32936" data-name="Rectangle 32936" width="1.028" height="1.03" transform="translate(12.873 0.532)"/>
    <rect id="Rectangle_32937" data-name="Rectangle 32937" width="1.028" height="1.03" transform="translate(13.901 0.532)"/>
    <rect id="Rectangle_32938" data-name="Rectangle 32938" width="1.028" height="1.03" transform="translate(14.93 0.532)"/>
    <rect id="Rectangle_32939" data-name="Rectangle 32939" width="1.028" height="1.03" transform="translate(15.958 0.532)"/>
    <rect id="Rectangle_32940" data-name="Rectangle 32940" width="1.028" height="1.03" transform="translate(16.988 0.532)"/>
    <rect id="Rectangle_32941" data-name="Rectangle 32941" width="1.028" height="1.03" transform="translate(18.016 0.532)"/>
    <rect id="Rectangle_32942" data-name="Rectangle 32942" width="1.028" height="1.03" transform="translate(19.043 0.532)"/>
    <rect id="Rectangle_32943" data-name="Rectangle 32943" width="1.028" height="1.03" transform="translate(20.073 0.532)"/>
    <rect id="Rectangle_32944" data-name="Rectangle 32944" width="1.028" height="1.03" transform="translate(21.101 1.562)"/>
    <rect id="Rectangle_32945" data-name="Rectangle 32945" width="1.028" height="1.03" transform="translate(21.101 2.594)"/>
    <rect id="Rectangle_32946" data-name="Rectangle 32946" width="1.028" height="1.03" transform="translate(20.073 3.623)"/>
    <rect id="Rectangle_32947" data-name="Rectangle 32947" width="1.028" height="1.03" transform="translate(21.101 3.623)"/>
    <rect id="Rectangle_32948" data-name="Rectangle 32948" width="1.028" height="1.03" transform="translate(22.13 3.623)"/>
    <rect id="Rectangle_32949" data-name="Rectangle 32949" width="1.028" height="1.03" transform="translate(23.158 4.655)"/>
    <rect id="Rectangle_32950" data-name="Rectangle 32950" width="1.028" height="1.03" transform="translate(24.186 5.684)"/>
    <rect id="Rectangle_32951" data-name="Rectangle 32951" width="1.028" height="1.03" transform="translate(24.186 6.714)"/>
    <rect id="Rectangle_32952" data-name="Rectangle 32952" width="1.028" height="1.03" transform="translate(24.186 7.746)"/>
    <rect id="Rectangle_32953" data-name="Rectangle 32953" width="1.028" height="1.03" transform="translate(23.158 8.775)"/>
    <rect id="Rectangle_32954" data-name="Rectangle 32954" width="1.028" height="1.03" transform="translate(23.158 9.807)"/>
    <rect id="Rectangle_32955" data-name="Rectangle 32955" width="1.028" height="1.03" transform="translate(22.13 10.836)"/>
    <rect id="Rectangle_32956" data-name="Rectangle 32956" width="1.028" height="1.03" transform="translate(22.13 11.866)"/>
    <rect id="Rectangle_32957" data-name="Rectangle 32957" width="1.028" height="1.03" transform="translate(21.101 12.897)"/>
    <rect id="Rectangle_32958" data-name="Rectangle 32958" width="1.028" height="1.03" transform="translate(20.073 13.927)"/>
    <rect id="Rectangle_32959" data-name="Rectangle 32959" width="1.028" height="1.03" transform="translate(19.043 14.957)"/>
    <rect id="Rectangle_32960" data-name="Rectangle 32960" width="1.028" height="1.03" transform="translate(18.016 14.957)"/>
    <rect id="Rectangle_32961" data-name="Rectangle 32961" width="3.085" height="1.03" transform="translate(14.93 15.988)"/>
    <rect id="Rectangle_32962" data-name="Rectangle 32962" width="1.028" height="1.03" transform="translate(20.073 4.655)"/>
    <rect id="Rectangle_32963" data-name="Rectangle 32963" width="1.028" height="1.03" transform="translate(20.073 5.684)"/>
    <rect id="Rectangle_32964" data-name="Rectangle 32964" width="1.028" height="1.03" transform="translate(21.101 5.684)"/>
    <rect id="Rectangle_32965" data-name="Rectangle 32965" width="1.028" height="1.03" transform="translate(22.13 5.684)"/>
    <rect id="Rectangle_32966" data-name="Rectangle 32966" width="1.028" height="1.03" transform="translate(22.13 6.714)"/>
    <rect id="Rectangle_32967" data-name="Rectangle 32967" width="1.028" height="1.03" transform="translate(22.13 7.746)"/>
    <rect id="Rectangle_32968" data-name="Rectangle 32968" width="1.028" height="1.03" transform="translate(21.101 8.775)"/>
    <rect id="Rectangle_32969" data-name="Rectangle 32969" width="1.028" height="1.03" transform="translate(21.101 9.807)"/>
    <rect id="Rectangle_32970" data-name="Rectangle 32970" width="1.028" height="1.03" transform="translate(20.073 10.836)"/>
    <rect id="Rectangle_32971" data-name="Rectangle 32971" width="1.028" height="1.03" transform="translate(20.073 11.866)"/>
    <rect id="Rectangle_32972" data-name="Rectangle 32972" width="1.028" height="1.03" transform="translate(19.043 12.897)"/>
    <rect id="Rectangle_32973" data-name="Rectangle 32973" width="1.028" height="1.03" transform="translate(18.016 12.897)"/>
    <rect id="Rectangle_32974" data-name="Rectangle 32974" width="1.028" height="1.03" transform="translate(20.073 6.714)"/>
    <rect id="Rectangle_32975" data-name="Rectangle 32975" width="1.028" height="1.03" transform="translate(19.043 7.746)"/>
    <rect id="Rectangle_32976" data-name="Rectangle 32976" width="1.028" height="1.03" transform="translate(19.043 8.775)"/>
    <rect id="Rectangle_32977" data-name="Rectangle 32977" width="1.028" height="1.03" transform="translate(19.043 9.807)"/>
    <rect id="Rectangle_32978" data-name="Rectangle 32978" width="1.028" height="1.03" transform="translate(18.016 10.836)"/>
    <rect id="Rectangle_32979" data-name="Rectangle 32979" width="1.028" height="1.03" transform="translate(18.016 11.866)"/>
    <rect id="Rectangle_32980" data-name="Rectangle 32980" width="1.028" height="1.03" transform="translate(16.988 12.897)"/>
    <rect id="Rectangle_32981" data-name="Rectangle 32981" width="1.028" height="1.03" transform="translate(16.988 13.927)"/>
    <rect id="Rectangle_32982" data-name="Rectangle 32982" width="1.028" height="1.03" transform="translate(15.958 13.927)"/>
    <rect id="Rectangle_32983" data-name="Rectangle 32983" width="1.028" height="1.03" transform="translate(14.93 14.957)"/>
    <rect id="Rectangle_32984" data-name="Rectangle 32984" width="1.028" height="1.03" transform="translate(13.901 15.988)"/>
    <rect id="Rectangle_32985" data-name="Rectangle 32985" width="1.028" height="1.03" transform="translate(13.901 17.018)"/>
    <rect id="Rectangle_32986" data-name="Rectangle 32986" width="1.028" height="1.03" transform="translate(13.901 18.049)"/>
    <rect id="Rectangle_32987" data-name="Rectangle 32987" width="1.028" height="1.03" transform="translate(13.901 19.079)"/>
    <rect id="Rectangle_32988" data-name="Rectangle 32988" width="1.028" height="1.03" transform="translate(14.93 20.109)"/>
    <rect id="Rectangle_32989" data-name="Rectangle 32989" width="1.028" height="1.03" transform="translate(14.93 21.14)"/>
    <rect id="Rectangle_32990" data-name="Rectangle 32990" width="1.028" height="1.03" transform="translate(13.901 22.17)"/>
    <rect id="Rectangle_32991" data-name="Rectangle 32991" width="1.028" height="1.03" transform="translate(13.901 23.201)"/>
    <rect id="Rectangle_32992" data-name="Rectangle 32992" width="1.028" height="1.03" transform="translate(14.93 24.231)"/>
    <rect id="Rectangle_32993" data-name="Rectangle 32993" width="1.028" height="1.03" transform="translate(15.958 24.231)"/>
    <rect id="Rectangle_32994" data-name="Rectangle 32994" width="4.041" height="1.03" transform="translate(12.947 27.838)"/>
    <rect id="Rectangle_32995" data-name="Rectangle 32995" width="1.028" height="1.03" transform="translate(15.958 28.867)"/>
    <rect id="Rectangle_32996" data-name="Rectangle 32996" width="4.041" height="1.03" transform="translate(12.947 29.899)"/>
    <rect id="Rectangle_32997" data-name="Rectangle 32997" width="1.028" height="1.03" transform="translate(16.988 25.261)"/>
    <rect id="Rectangle_32998" data-name="Rectangle 32998" width="6.098" height="1.03" transform="translate(12.947 26.292)"/>
    <rect id="Rectangle_32999" data-name="Rectangle 32999" width="6.244" height="1.03" transform="translate(6.702 26.292)"/>
    <rect id="Rectangle_33000" data-name="Rectangle 33000" width="1.028" height="1.03" transform="translate(19.043 27.322)"/>
    <rect id="Rectangle_33001" data-name="Rectangle 33001" width="1.028" height="1.03" transform="translate(19.043 28.353)"/>
    <rect id="Rectangle_33002" data-name="Rectangle 33002" width="1.028" height="1.03" transform="translate(19.043 29.383)"/>
    <rect id="Rectangle_33003" data-name="Rectangle 33003" width="1.028" height="1.03" transform="translate(19.043 30.413)"/>
    <rect id="Rectangle_33004" data-name="Rectangle 33004" width="7.126" height="1.03" transform="translate(12.947 31.444)"/>
    <rect id="Rectangle_33005" data-name="Rectangle 33005" width="1.028" height="1.03" transform="translate(19.043 32.474)"/>
    <rect id="Rectangle_33006" data-name="Rectangle 33006" width="7.126" height="1.03" transform="translate(12.947 33.505)"/>
    <rect id="Rectangle_33007" data-name="Rectangle 33007" width="1.028" height="1.03" transform="translate(13.901 24.231)"/>
    <rect id="Rectangle_33008" data-name="Rectangle 33008" width="1.028" height="1.03" transform="translate(12.873 24.231)"/>
    <rect id="Rectangle_33009" data-name="Rectangle 33009" width="14.398" height="1.03" transform="translate(5.673 3.623)"/>
    <rect id="Rectangle_33010" data-name="Rectangle 33010" width="1.028" height="1.03" transform="translate(14.93 5.684)" fill="#f3d788"/>
    <rect id="Rectangle_33011" data-name="Rectangle 33011" width="1.028" height="1.03" transform="translate(15.958 5.684)" fill="#f3d788"/>
    <rect id="Rectangle_33012" data-name="Rectangle 33012" width="1.028" height="1.03" transform="translate(16.988 5.684)" fill="#f3d788"/>
    <rect id="Rectangle_33013" data-name="Rectangle 33013" width="1.028" height="1.03" transform="translate(14.93 6.714)" fill="#f3d788"/>
    <rect id="Rectangle_33014" data-name="Rectangle 33014" width="1.028" height="1.03" transform="translate(13.901 5.684)" fill="#f3d788"/>
    <rect id="Rectangle_33015" data-name="Rectangle 33015" width="1.028" height="1.03" transform="translate(13.901 6.714)" fill="#f3d788"/>
    <rect id="Rectangle_33016" data-name="Rectangle 33016" width="1.028" height="1.03" transform="translate(12.873 5.684)" fill="#f3d788"/>
    <rect id="Rectangle_33017" data-name="Rectangle 33017" width="1.028" height="1.03" transform="translate(14.93 4.655)" fill="#f3d788"/>
    <rect id="Rectangle_33018" data-name="Rectangle 33018" width="1.028" height="1.03" transform="translate(15.958 4.655)" fill="#f3d788"/>
    <rect id="Rectangle_33019" data-name="Rectangle 33019" width="1.028" height="1.03" transform="translate(16.988 4.655)" fill="#f3d788"/>
    <rect id="Rectangle_33020" data-name="Rectangle 33020" width="1.028" height="1.03" transform="translate(13.901 4.655)" fill="#f3d788"/>
    <rect id="Rectangle_33021" data-name="Rectangle 33021" width="1.028" height="1.03" transform="translate(12.873 4.655)" fill="#f3d788"/>
    <rect id="Rectangle_33022" data-name="Rectangle 33022" width="1.028" height="1.03" transform="translate(12.873 6.714)" fill="#f3d788"/>
    <rect id="Rectangle_33023" data-name="Rectangle 33023" width="1.028" height="1.03" transform="translate(15.958 6.714)" fill="#f3d788"/>
    <rect id="Rectangle_33024" data-name="Rectangle 33024" width="1.028" height="1.03" transform="translate(14.93 7.746)" fill="#f3d788"/>
    <rect id="Rectangle_33025" data-name="Rectangle 33025" width="1.028" height="1.03" transform="translate(13.901 7.746)" fill="#f3d788"/>
    <rect id="Rectangle_33026" data-name="Rectangle 33026" width="1.028" height="1.03" transform="translate(15.958 7.746)" fill="#f3d788"/>
    <rect id="Rectangle_33027" data-name="Rectangle 33027" width="1.028" height="1.03" transform="translate(14.93 8.775)" fill="#f3d788"/>
    <rect id="Rectangle_33028" data-name="Rectangle 33028" width="1.028" height="1.03" transform="translate(13.901 8.775)" fill="#f3d788"/>
    <rect id="Rectangle_33029" data-name="Rectangle 33029" width="1.028" height="1.03" transform="translate(15.958 8.775)" fill="#f3d788"/>
    <rect id="Rectangle_33030" data-name="Rectangle 33030" width="1.028" height="1.03" transform="translate(14.93 9.807)" fill="#f3d788"/>
    <rect id="Rectangle_33031" data-name="Rectangle 33031" width="1.028" height="1.03" transform="translate(13.901 9.807)" fill="#f3d788"/>
    <rect id="Rectangle_33032" data-name="Rectangle 33032" width="1.028" height="1.03" transform="translate(15.958 9.807)" fill="#f3d788"/>
    <rect id="Rectangle_33033" data-name="Rectangle 33033" width="1.028" height="1.03" transform="translate(14.93 10.836)" fill="#f3d788"/>
    <rect id="Rectangle_33034" data-name="Rectangle 33034" width="1.028" height="1.03" transform="translate(15.958 10.836)" fill="#f3d788"/>
    <rect id="Rectangle_33035" data-name="Rectangle 33035" width="1.028" height="1.03" transform="translate(14.93 11.866)" fill="#f3d788"/>
    <rect id="Rectangle_33036" data-name="Rectangle 33036" width="1.028" height="1.03" transform="translate(16.988 7.746)" fill="#f3d788"/>
    <rect id="Rectangle_33037" data-name="Rectangle 33037" width="1.028" height="1.03" transform="translate(16.988 8.775)" fill="#f3d788"/>
    <rect id="Rectangle_33038" data-name="Rectangle 33038" width="1.028" height="1.03" transform="translate(16.988 9.807)" fill="#f3d788"/>
    <rect id="Rectangle_33039" data-name="Rectangle 33039" width="1.028" height="1.03" transform="translate(16.988 6.714)" fill="#f3d788"/>
    <rect id="Rectangle_33040" data-name="Rectangle 33040" width="1.028" height="1.03" transform="translate(18.016 5.684)" fill="#f3d788"/>
    <rect id="Rectangle_33041" data-name="Rectangle 33041" width="1.028" height="1.03" transform="translate(18.016 4.655)" fill="#f3d788"/>
    <rect id="Rectangle_33042" data-name="Rectangle 33042" width="1.028" height="1.03" transform="translate(18.016 6.714)" fill="#f3d788"/>
    <rect id="Rectangle_33043" data-name="Rectangle 33043" width="3.191" height="1.03" transform="translate(15.391 2.594)" fill="#f3d788"/>
    <rect id="Rectangle_33044" data-name="Rectangle 33044" width="5.249" height="1.03" transform="translate(14.363 1.562)" fill="#f3d788"/>
    <rect id="Rectangle_33045" data-name="Rectangle 33045" width="1.028" height="1.03" transform="translate(11.845 15.988)" fill="#f2bf1b"/>
    <rect id="Rectangle_33046" data-name="Rectangle 33046" width="1.028" height="1.03" transform="translate(12.873 15.988)" fill="#f2bf1b"/>
    <rect id="Rectangle_33047" data-name="Rectangle 33047" width="1.028" height="1.03" transform="translate(12.873 17.018)" fill="#f2bf1b"/>
    <rect id="Rectangle_33048" data-name="Rectangle 33048" width="1.028" height="1.03" transform="translate(11.845 17.018)" fill="#f2bf1b"/>
    <rect id="Rectangle_33049" data-name="Rectangle 33049" width="1.028" height="1.03" transform="translate(11.845 18.049)" fill="#f2bf1b"/>
    <rect id="Rectangle_33050" data-name="Rectangle 33050" width="1.028" height="1.03" transform="translate(11.845 19.079)" fill="#f2bf1b"/>
    <rect id="Rectangle_33051" data-name="Rectangle 33051" width="1.028" height="1.03" transform="translate(12.873 18.049)" fill="#e1a125"/>
    <rect id="Rectangle_33052" data-name="Rectangle 33052" width="1.028" height="1.03" transform="translate(12.873 19.079)" fill="#e1a125"/>
    <rect id="Rectangle_33053" data-name="Rectangle 33053" width="1.028" height="1.03" transform="translate(13.901 21.14)" fill="#e1a125"/>
    <rect id="Rectangle_33054" data-name="Rectangle 33054" width="1.028" height="1.03" transform="translate(10.816 21.14)" fill="#f2bf1b"/>
    <rect id="Rectangle_33055" data-name="Rectangle 33055" width="1.028" height="1.03" transform="translate(11.845 21.14)" fill="#f2bf1b"/>
    <rect id="Rectangle_33056" data-name="Rectangle 33056" width="1.028" height="1.03" transform="translate(9.825 25.261)" fill="#e1a125"/>
    <rect id="Rectangle_33057" data-name="Rectangle 33057" width="1.028" height="1.03" transform="translate(10.816 25.261)" fill="#e1a125"/>
    <rect id="Rectangle_33058" data-name="Rectangle 33058" width="1.028" height="1.03" transform="translate(12.873 25.261)" fill="#f2bf1b"/>
    <rect id="Rectangle_33059" data-name="Rectangle 33059" width="1.028" height="1.03" transform="translate(13.901 25.261)" fill="#f2bf1b"/>
    <rect id="Rectangle_33060" data-name="Rectangle 33060" width="1.028" height="1.03" transform="translate(14.93 25.261)" fill="#f3d788"/>
    <rect id="Rectangle_33061" data-name="Rectangle 33061" width="1.028" height="1.03" transform="translate(12.873 23.201)" fill="#e1a125"/>
    <rect id="Rectangle_33062" data-name="Rectangle 33062" width="4.115" height="1.03" transform="translate(10.816 20.109)" fill="#f2bf1b"/>
    <rect id="Rectangle_33063" data-name="Rectangle 33063" width="2.057" height="1.03" transform="translate(11.845 22.17)" fill="#f2bf1b"/>
    <rect id="Rectangle_33064" data-name="Rectangle 33064" width="6.17" height="1.03" transform="translate(9.788 28.867)" fill="#edd89e"/>
    <rect id="Rectangle_33065" data-name="Rectangle 33065" width="1.028" height="1.03" transform="translate(7.73 32.474)" fill="#e79132"/>
    <rect id="Rectangle_33066" data-name="Rectangle 33066" width="1.028" height="1.03" transform="translate(8.758 32.474)" fill="#e79132"/>
    <rect id="Rectangle_33067" data-name="Rectangle 33067" width="5.657" height="1.03" transform="translate(11.33 32.474)" fill="#f3d788"/>
    <rect id="Rectangle_33068" data-name="Rectangle 33068" width="1.028" height="1.03" transform="translate(2.588 4.655)" fill="#f2bf1b"/>
    <rect id="Rectangle_33069" data-name="Rectangle 33069" width="1.028" height="1.03" transform="translate(1.56 5.684)" fill="#f2bf1b"/>
    <rect id="Rectangle_33070" data-name="Rectangle 33070" width="1.028" height="1.03" transform="translate(1.56 6.714)" fill="#f2bf1b"/>
    <rect id="Rectangle_33071" data-name="Rectangle 33071" width="1.028" height="1.03" transform="translate(8.758 14.957)" fill="#e1a125"/>
    <rect id="Rectangle_33072" data-name="Rectangle 33072" width="1.028" height="1.03" transform="translate(15.958 14.957)" fill="#e1a125"/>
    <rect id="Rectangle_33073" data-name="Rectangle 33073" width="1.028" height="1.03" transform="translate(23.158 6.714)" fill="#f2bf1b"/>
  </g>
</svg>
