<svg width="150" height="150" viewBox="0 0 150 150" fill="none" xmlns="http://www.w3.org/2000/svg">
<path d="M110.357 107.656C70.4808 126.634 45.7333 110.755 29.8916 101.111C28.9113 100.504 27.2452 101.254 28.6908 102.914C33.9684 109.313 51.2644 124.737 73.8408 124.737C96.4327 124.737 109.873 112.41 111.554 110.26C113.224 108.128 112.045 106.951 110.357 107.656ZM121.556 101.471C120.485 100.077 115.044 99.8166 111.621 100.238C108.191 100.646 103.044 102.742 103.492 104C103.721 104.471 104.19 104.26 106.545 104.048C108.908 103.813 115.525 102.977 116.904 104.78C118.29 106.595 114.794 115.241 114.155 116.636C113.538 118.03 114.391 118.39 115.55 117.461C116.693 116.533 118.762 114.128 120.15 110.726C121.529 107.305 122.37 102.533 121.556 101.471Z" fill="#FF9900"/>
<path fill-rule="evenodd" clip-rule="evenodd" d="M83.5448 68.932C83.5448 73.9116 83.6705 78.0642 81.1537 82.4864C79.1222 86.0817 75.9042 88.2928 72.3089 88.2928C67.4011 88.2928 64.5431 84.5536 64.5431 79.035C64.5431 68.1408 74.3044 66.1636 83.5448 66.1636V68.932ZM96.4336 100.086C95.5889 100.84 94.3664 100.895 93.4139 100.391C89.1713 96.8681 88.4161 95.2322 86.0794 91.8703C79.0683 99.0253 74.1066 101.164 65.0105 101.164C54.2606 101.164 45.8834 94.5305 45.8834 81.2461C45.8834 70.8736 51.5105 63.8086 59.5092 60.3577C66.4486 57.3009 76.1381 56.7619 83.5448 55.9172V54.263C83.5448 51.225 83.7778 47.6297 81.9984 45.0053C80.4342 42.6503 77.4502 41.6795 74.8256 41.6795C69.9539 41.6795 65.6039 44.1781 64.5431 49.3552C64.327 50.5059 63.4823 51.6389 62.332 51.6923L49.928 50.3625C48.8855 50.1286 47.7352 49.2839 48.023 47.6836C50.8809 32.6554 64.4531 28.125 76.605 28.125C82.8248 28.125 90.9502 29.779 95.858 34.489C102.078 40.2953 101.485 48.0431 101.485 56.4741V76.3922C101.485 82.3786 103.965 85.0031 106.302 88.2389C107.129 89.3897 107.309 90.7739 106.267 91.6364C103.66 93.8114 99.0216 97.8567 96.4692 100.122L96.4336 100.086Z" fill="black"/>
<path d="M29.6282 101.536L29.6282 101.536L29.6316 101.538C29.9194 101.714 30.2102 101.891 30.5041 102.07C38.2911 106.818 48.2421 112.885 61.0071 115.606C74.2693 118.432 90.5334 117.641 110.56 108.113C111.321 107.799 111.695 108.008 111.791 108.16C111.848 108.251 111.899 108.428 111.823 108.735C111.747 109.045 111.55 109.454 111.16 109.952L111.16 109.952C110.374 110.957 106.656 114.535 100.307 117.862C93.9722 121.181 85.0433 124.237 73.8408 124.237C51.4778 124.237 34.3094 108.941 29.0765 102.596L29.0767 102.596L29.0679 102.586C28.7437 102.213 28.6446 101.948 28.6278 101.793C28.6135 101.66 28.6546 101.589 28.714 101.536C28.8791 101.389 29.2923 101.328 29.6282 101.536ZM111.68 100.734L111.682 100.734C113.357 100.528 115.537 100.488 117.422 100.671C118.365 100.763 119.218 100.909 119.89 101.11C120.587 101.319 120.993 101.56 121.159 101.776C121.198 101.827 121.253 101.937 121.297 102.14C121.34 102.338 121.367 102.59 121.373 102.895C121.387 103.504 121.319 104.275 121.181 105.135C120.906 106.852 120.361 108.864 119.687 110.538C118.328 113.866 116.31 116.199 115.236 117.072C114.978 117.278 114.762 117.393 114.603 117.444C114.53 117.467 114.481 117.474 114.451 117.475C114.45 117.47 114.45 117.464 114.449 117.457C114.444 117.351 114.474 117.151 114.611 116.841C114.94 116.122 115.98 113.594 116.767 111.011C117.16 109.719 117.497 108.394 117.645 107.267C117.719 106.704 117.748 106.172 117.708 105.71C117.669 105.257 117.559 104.813 117.302 104.476L117.301 104.476C116.84 103.873 116.009 103.558 115.135 103.382C114.235 103.201 113.166 103.143 112.091 103.15C110.237 103.161 108.292 103.364 107.042 103.494C106.842 103.515 106.659 103.534 106.498 103.55C105.923 103.602 105.458 103.654 105.086 103.695L105.051 103.699C104.667 103.742 104.398 103.771 104.198 103.781C104.103 103.785 104.034 103.784 103.985 103.78C103.99 103.77 103.996 103.759 104.003 103.747C104.064 103.642 104.19 103.5 104.404 103.329C104.828 102.988 105.491 102.616 106.304 102.257C107.925 101.542 110.021 100.931 111.68 100.734ZM114.458 117.513C114.457 117.513 114.457 117.512 114.456 117.51C114.457 117.512 114.458 117.513 114.458 117.513ZM103.964 103.839C103.965 103.842 103.965 103.844 103.965 103.844C103.964 103.844 103.964 103.843 103.964 103.839Z" fill="#FF9900" stroke="white"/>
<path d="M81.5887 82.733C84.0571 78.3952 84.0517 74.2974 84.0455 69.6402C84.0452 69.4056 84.0448 69.1696 84.0448 68.932V66.1636V65.6636H83.5448C78.9078 65.6636 74.056 66.1562 70.3495 68.0697C68.4868 69.0313 66.9028 70.3569 65.7872 72.1653C64.6712 73.9742 64.0431 76.2347 64.0431 79.035C64.0431 81.8752 64.7783 84.3124 66.1985 86.0498C67.6283 87.7991 69.7162 88.7928 72.3089 88.7928C76.1271 88.7928 79.4917 86.4437 81.5887 82.733ZM81.5887 82.733C81.5886 82.7332 81.5884 82.7335 81.5883 82.7337L81.1537 82.4864L81.5891 82.7324C81.5889 82.7326 81.5888 82.7328 81.5887 82.733ZM96.4922 99.4332L96.4553 99.3958L96.1005 99.7128C95.4456 100.298 94.4787 100.367 93.6916 99.9719C90.209 97.0745 89.1442 95.4983 87.5061 93.0735C87.1949 92.6129 86.863 92.1217 86.4899 91.5849L86.1451 91.0888L85.7222 91.5204C82.2384 95.0758 79.2971 97.3497 76.1257 98.7426C72.9579 100.134 69.5191 100.664 65.0105 100.664C59.737 100.664 55.0894 99.0383 51.763 95.8271C48.4404 92.6196 46.3834 87.7797 46.3834 81.2461C46.3834 71.09 51.8759 64.1955 59.7073 60.8168L59.7108 60.8152C63.119 59.3139 67.224 58.4228 71.4248 57.8025C74.268 57.3828 77.1282 57.0902 79.8344 56.8135C81.1318 56.6808 82.3938 56.5517 83.6015 56.414L84.0448 56.3634V55.9172V54.263C84.0448 53.9602 84.0473 53.649 84.0497 53.3316C84.0595 52.0821 84.07 50.736 83.9363 49.4282C83.768 47.7813 83.3675 46.1345 82.4136 44.7266C80.7212 42.1807 77.5414 41.1795 74.8256 41.1795C69.7855 41.1795 65.1744 43.7836 64.0533 49.2548L64.0532 49.2548L64.0517 49.2629C63.9589 49.7574 63.7303 50.2441 63.4127 50.6048C63.1058 50.9533 62.7385 51.1617 62.344 51.1908L50.0109 49.8685C49.5761 49.766 49.1444 49.5423 48.8544 49.2079C48.5733 48.8837 48.398 48.4266 48.5147 47.7744C49.9149 40.4152 53.9263 35.6462 59.0768 32.7028C64.2459 29.749 70.5824 28.625 76.605 28.625C82.7743 28.625 90.7414 30.2717 95.5118 34.8498L95.5117 34.8498L95.5168 34.8545C101.067 40.0358 101.032 46.7876 100.992 54.4741C100.988 55.134 100.985 55.8008 100.985 56.4741V76.3922C100.985 81.9069 103.053 84.6923 105.148 87.5141C105.399 87.8511 105.649 88.1886 105.897 88.5314C106.269 89.0493 106.471 89.5884 106.486 90.0609C106.499 90.5157 106.342 90.9253 105.948 91.2512L105.946 91.2525C103.451 93.3348 99.1024 97.123 96.4922 99.4332Z" fill="black" stroke="white"/>
</svg>
