<svg width="150" height="150" viewBox="0 0 150 150" fill="none" xmlns="http://www.w3.org/2000/svg">
<g clip-path="url(#clip0_1_2)">
<mask id="mask0_1_2" style="mask-type:luminance" maskUnits="userSpaceOnUse" x="0" y="0" width="150" height="150">
<path d="M150 0H0V150H150V0Z" fill="white"/>
</mask>
<g mask="url(#mask0_1_2)">
<mask id="mask1_1_2" style="mask-type:luminance" maskUnits="userSpaceOnUse" x="14" y="42" width="118" height="71">
<path d="M14.5625 42.6875H130.75V112H14.5625V42.6875Z" fill="white" stroke="white"/>
</mask>
<g mask="url(#mask1_1_2)">
<path d="M29.5443 72.9124H14.5625V43.5587H28.4285C31.4434 43.5587 34.0318 44.344 35.8524 45.6695C37.6639 46.9884 38.7205 48.8412 38.7205 51.0408C38.7205 52.7859 38.1781 54.0456 37.4159 54.9678C36.6464 55.8988 35.6307 56.5119 34.654 56.9141L33.3693 57.4431L34.6965 57.854C36.3419 58.3636 37.8622 59.0907 38.967 60.1836C40.0569 61.2617 40.769 62.7209 40.769 64.7681C40.769 67.817 39.4528 69.8193 37.4269 71.0846C35.369 72.3698 32.5444 72.9124 29.5443 72.9124ZM23.5469 49.6281H23.0469V50.1281V54.6563V55.1563H23.5469H27.0337C27.863 55.1563 28.607 54.8101 29.142 54.3114C29.6717 53.8177 30.0356 53.1356 30.0356 52.4278C30.0356 50.9744 28.71 49.6281 27.0337 49.6281H23.5469ZM23.5469 60.4558H23.0469V60.9558V66.4238V66.9238H23.5469H27.8706C30.069 66.9238 31.6047 65.4853 31.6047 63.6403C31.6047 61.8917 29.9897 60.4558 28.1496 60.4558H23.5469Z" fill="#1C252C" stroke="white"/>
<path d="M37.2155 106.577H22.2336V77.2231H36.0997C39.1146 77.2231 41.7029 78.0084 43.5234 79.334C45.3349 80.6528 46.3914 82.5057 46.3914 84.7055C46.3914 86.4503 45.8491 87.71 45.0869 88.6323C44.3175 89.5633 43.3018 90.1766 42.3252 90.5787L41.0402 91.1078L42.3677 91.5187C44.0131 92.028 45.5334 92.7551 46.6382 93.848C47.7282 94.9262 48.4403 96.3853 48.4403 98.4323C48.4403 101.481 47.1241 103.484 45.0981 104.749C43.0402 106.034 40.2156 106.577 37.2155 106.577ZM31.218 83.2928H30.718V83.7928V88.3205V88.8205H31.218H34.7049C35.5341 88.8205 36.2781 88.4745 36.8131 87.9759C37.3428 87.4823 37.7068 86.8003 37.7068 86.0925C37.7068 84.6391 36.3811 83.2928 34.7049 83.2928H31.218ZM31.218 94.1205H30.718V94.6205V100.088V100.588H31.218H35.5418C37.74 100.588 39.2758 99.15 39.2758 97.305C39.2758 95.5559 37.6608 94.1205 35.8207 94.1205H31.218Z" fill="#1C252C" stroke="white"/>
<path d="M51.4697 66.6064H65.3636V72.9086H42.5135V43.555H65.3636V49.8855H51.4697H50.9697V50.3855V54.3661V54.8661H51.4697H62.658V60.7384H51.4697H50.9697V61.2384V66.1064V66.6064H51.4697Z" fill="#1C252C" stroke="white"/>
<path d="M90.3672 63.9764C90.3672 67.0076 89.0952 69.4419 87.027 71.1284C84.95 72.8221 82.0469 73.7777 78.7837 73.7777C72.7454 73.7777 69.2645 71.3945 67.038 69.2675L71.9861 64.4247C73.3084 65.5243 75.0717 66.7813 77.2847 66.7813C79.4235 66.7813 80.8044 65.4819 80.8044 63.9839C80.8044 63.3829 80.4987 62.92 80.0721 62.5656C79.6584 62.222 79.0964 61.9491 78.4833 61.7044C77.9444 61.4894 77.3284 61.2821 76.6858 61.0659C76.5915 61.0342 76.4966 61.0023 76.4013 60.9701C75.65 60.7165 74.8612 60.4439 74.0755 60.1178C72.5008 59.4645 70.9766 58.6115 69.8459 57.3213C68.7264 56.0441 67.9634 54.3053 67.9634 51.8166C67.9634 46.9031 72.3446 42.6875 79.3134 42.6875C83.6872 42.6875 86.9772 44.2793 89.1429 46.2267L84.2298 51.0289C84.0302 50.8799 83.7541 50.6916 83.414 50.5034C82.6835 50.0993 81.6352 49.6839 80.4042 49.6839C79.6793 49.6839 78.9357 49.8656 78.3573 50.2502C77.7661 50.6433 77.3383 51.2605 77.3383 52.0763C77.3383 52.6769 77.655 53.133 78.087 53.4764C78.5065 53.8098 79.0758 54.0727 79.697 54.3079C80.2389 54.5131 80.858 54.7105 81.5044 54.9166C81.6051 54.9487 81.7065 54.981 81.8083 55.0136C82.5705 55.2576 83.3711 55.5204 84.1687 55.8362C85.7676 56.4694 87.3143 57.3006 88.461 58.5656C89.5951 59.8168 90.3672 61.5242 90.3672 63.9764Z" fill="#1C252C" stroke="white"/>
<path d="M107.151 50.3569V72.9086H98.6666V50.3569V49.8569H98.1666H90.8558V43.555H114.962V49.8569H107.651H107.151V50.3569Z" fill="#1C252C" stroke="white"/>
<path d="M49.7661 77.2016H58.2227V94.8853C58.2227 95.9702 58.7458 96.9809 59.5041 97.7117C60.2625 98.4426 61.2965 98.9333 62.3794 98.9333C64.4037 98.9333 66.4194 97.1852 66.4194 94.7883V77.2016H74.8483V94.6645C74.8483 101.504 69.3193 106.978 62.1295 106.978C54.9375 106.978 49.7661 101.044 49.7661 94.2759V77.2016Z" fill="#1C252C" stroke="white"/>
<path d="M95.9927 96.3206V106.555H87.5084V96.2091V96.0766L87.4429 95.9615L76.7542 77.2016H85.1789L91.3219 87.4115L91.7496 88.1224L92.1783 87.4122L98.3433 77.2016H106.791L96.058 96.0734L95.9927 96.1884V96.3206Z" fill="#1C252C" stroke="white"/>
<path d="M102.572 106.57V99.2445L107.862 93.8141H130.75V112H107.862L102.572 106.57Z" fill="#FFED31" stroke="white"/>
<path d="M106.234 102.903C106.234 103.351 105.884 103.692 105.479 103.692C105.074 103.692 104.724 103.351 104.724 102.903C104.724 102.455 105.074 102.115 105.479 102.115C105.884 102.115 106.234 102.455 106.234 102.903Z" fill="#1C252C" stroke="white"/>
</g>
</g>
</g>
<defs>
<clipPath id="clip0_1_2">
<rect width="150" height="150" fill="white"/>
</clipPath>
</defs>
</svg>
